<svg id="Layer_1" data-name="Layer 1" xmlns="http://www.w3.org/2000/svg" viewBox="0 0 2400 2400"><defs><style>.cls-1{fill:#00e3cc;}.cls-2{fill:#686868;}.cls-3{fill:#b9b9b9;}</style></defs><title>Artboard 1</title><path class="cls-1" d="M1542,1099.91c0-189.1-153.48-342.35-342.66-342-188.14.36-341.32,153.82-341.34,342a340.37,340.37,0,0,0,45.69,170.93,765,765,0,0,1,103,382.81v.06h386.54v-.06c0-134.85,36.53-266.83,103.62-383.81A340.45,340.45,0,0,0,1542,1099.91Z"/><circle class="cls-2" cx="1200.08" cy="1770.26" r="157.08"/><ellipse class="cls-3" cx="1200.08" cy="1736.58" rx="183.09" ry="157.08"/><path class="cls-3" d="M1470,1607.74c0,1.36,0,2.71-.15,4a51.51,51.51,0,0,1-.76,5.89,49.14,49.14,0,0,1-10.45,22.76c-6,7.18-14,12-23,13.24a32,32,0,0,1-4.5.31H968.94a34,34,0,0,1-4.53-.31c-16.53-2.29-29.88-17-33.38-36a55.83,55.83,0,0,1-.75-5.86c-.1-1.34-.15-2.7-.15-4.07a55.71,55.71,0,0,1,.5-7.48,49.61,49.61,0,0,1,10.86-25.21c7-8.37,16.73-13.55,27.45-13.55h462.28c19.31,0,35.31,16.78,38.31,38.76A55.71,55.71,0,0,1,1470,1607.74Z"/><path class="cls-3" d="M1444.08,1699.74c0,1.36,0,2.71-.14,4a59.24,59.24,0,0,1-.68,5.89,51.65,51.65,0,0,1-9.45,22.76c-5.44,7.18-12.68,12-20.75,13.24a26.05,26.05,0,0,1-4.06.31H991.16a27.74,27.74,0,0,1-4.09-.31c-15-2.29-27-17-30.16-36a55.84,55.84,0,0,1-.69-5.86c-.09-1.34-.14-2.7-.14-4.07a61.21,61.21,0,0,1,.45-7.48,52.35,52.35,0,0,1,9.82-25.21c6.34-8.37,15.12-13.55,24.81-13.55H1409c17.45,0,31.92,16.78,34.63,38.76A61.21,61.21,0,0,1,1444.08,1699.74Z"/><path class="cls-3" d="M1418.08,1791.74c0,1.36,0,2.71-.12,4-.12,2-.32,4-.61,5.89a55.22,55.22,0,0,1-8.44,22.76c-4.86,7.18-11.33,12-18.53,13.24a21,21,0,0,1-3.64.31H1013.42a22.11,22.11,0,0,1-3.65-.31c-13.35-2.29-24.14-17-27-36-.29-1.91-.49-3.87-.61-5.86-.08-1.34-.12-2.7-.12-4.07a70.49,70.49,0,0,1,.4-7.48,56.28,56.28,0,0,1,8.77-25.21c4.66-6.88,10.79-11.61,17.63-13.07.61-.13,1.22-.23,1.84-.31a22,22,0,0,1,2.7-.17h373.32a22.15,22.15,0,0,1,2.71.17c.61.08,1.22.18,1.82.31,13.51,2.88,24.22,18.47,26.41,38.28A70.49,70.49,0,0,1,1418.08,1791.74Z"/><path class="cls-2" d="M1469.13,1617.67a49.14,49.14,0,0,1-10.45,22.76c-6,7.18-14,12-23,13.24H964.42c-16.53-2.29-29.88-17-33.38-36Z"/><path class="cls-2" d="M1443.26,1709.67a51.65,51.65,0,0,1-9.45,22.76c-5.44,7.18-12.68,12-20.75,13.24h-426c-15-2.29-27-17-30.16-36Z"/><path class="cls-2" d="M1417.35,1801.67a55.22,55.22,0,0,1-8.44,22.76c-4.86,7.18-11.33,12-18.53,13.24H1009.77c-13.35-2.29-24.14-17-27-36Z"/><rect class="cls-1" x="1173" y="472.67" width="54" height="209" rx="27" ry="27"/><rect class="cls-1" x="1424" y="532.67" width="54" height="209" rx="27" ry="27" transform="translate(395.39 -544.81) rotate(24.52)"/><rect class="cls-1" x="1609" y="696.67" width="54" height="209" rx="27" ry="27" transform="translate(1184.73 -963.69) rotate(49.57)"/><rect class="cls-1" x="922" y="532.67" width="54" height="209" rx="27" ry="27" transform="translate(2076.86 822.93) rotate(155.48)"/><rect class="cls-1" x="737" y="696.67" width="54" height="209" rx="27" ry="27" transform="translate(1869.32 739.28) rotate(130.43)"/></svg>