<svg xmlns="http://www.w3.org/2000/svg" viewBox="0 0 2400 2400"><defs><style>.cls-1{fill:#02b3e4;}.cls-2{fill:#fff;opacity:0.3;}</style></defs><title>Artboard 2</title><g id="Layer_2" data-name="Layer 2"><path class="cls-1" d="M1774.32,933.45c-87.26-224.13-223.18-379.7-393.06-449.91a643.47,643.47,0,0,0-144.07-41.77q-21.15-3.48-42.08-5.44c-77.63-7.28-152.74,1.22-223.82,25.38-73.87,25.11-140.9,66.57-199.23,123.23-45.28,44-85.27,97.15-118.83,158a839.16,839.16,0,0,0-53.84,119.13H873q1.15-2.07,2.32-4.13c46.5-81.87,105.81-135.53,176.39-159.52,35.22-12,86.82-20.86,152.32-8.54a414.8,414.8,0,0,1,81.7,24.71c105.3,43.52,193.68,150.57,255.59,309.57,62.65,160.92,93.11,721.61,88.73,942.91h250c0-1.38,0-2.76.06-4.13C1884.13,1712.57,1847.83,1122.23,1774.32,933.45Z"/><path class="cls-2" d="M1195.11,435.46a520.41,520.41,0,0,0-85.82,21.25c-73.87,25.11-140.9,66.57-199.23,123.23-45.28,44-85.27,97.15-118.83,158A914.46,914.46,0,0,0,735,862.06H599a851.44,851.44,0,0,1,54.23-120c33.56-60.84,73.55-114,118.83-158C830.39,527.41,897.42,486,971.29,460.84,1042.37,436.68,1117.48,428.18,1195.11,435.46Z"/><path class="cls-1" d="M737.52,1057.06c0,191.14-148.56,377.31-148.56,482.87s66.51,191.13,148.56,191.13,148.55-85.57,148.55-191.13S737.52,1248.2,737.52,1057.06Z"/><path class="cls-1" d="M925.52,861.19h-376a30,30,0,0,0-30,30v44a30,30,0,0,0,30,30h376a30,30,0,0,0,30-30v-44A30,30,0,0,0,925.52,861.19Z"/><path class="cls-2" d="M955.52,891.19v21.87h-436V891.19a30,30,0,0,1,30-30h376A30,30,0,0,1,955.52,891.19Z"/></g></svg>