<svg xmlns="http://www.w3.org/2000/svg" viewBox="0 0 2400 2400"><defs><style>.cls-1{fill:#ff903b;}.cls-2{fill:#ffa45e;}.cls-3{fill:#ffd8aa;}</style></defs><title>Artboard 3</title><g id="Layer_3" data-name="Layer 3"><path class="cls-1" d="M2116.86,1091.16a37.68,37.68,0,0,1-2,11.94l-46.48,138c-7.18,21.31-32.44,36.21-61.36,36.21H395.86c-28.94,0-54.2-14.9-61.38-36.21L288,1103.1a38.06,38.06,0,0,1-2-11.3v-.64a37.11,37.11,0,0,1,.73-7.33c.08-.41.17-.8.26-1.2.18-.74.36-1.46.58-2.19s.52-1.65.84-2.47.52-1.33.8-2c.16-.38.34-.76.52-1.15l.54-1.08a49.14,49.14,0,0,1,12.91-15.56l1.05-.84,1.08-.81,1.11-.8c.36-.26.74-.52,1.13-.77l.95-.63c.64-.42,1.28-.82,1.95-1.21l1-.57c.49-.28,1-.56,1.49-.82l1-.52c.86-.44,1.71-.86,2.57-1.26l1.32-.59,1.34-.57q2.69-1.11,5.54-2c1.89-.61,3.83-1.14,5.82-1.62,1-.23,2-.44,3-.65l1.51-.28,1.54-.25c1-.15,2-.28,3-.41a85.46,85.46,0,0,1,9.81-.57H2053.48c1.66,0,3.29,0,4.9.14.43,0,.85,0,1.27.09.65,0,1.29.09,1.93.16l1.51.15.24,0c1,.13,2,.26,3,.41l1.54.25,1.52.28c1,.21,2,.42,3,.65,2,.48,3.92,1,5.83,1.62,1.41.46,2.82,1,4.18,1.49l1.35.54,1.33.57,1.17.52c.49.22,1,.45,1.45.69l1.17.58.66.34,1.05.58c.48.25.94.52,1.4.79s.69.41,1,.61l1.18.73c.78.5,1.54,1,2.29,1.53,9.3,6.55,16,15.15,18.84,24.69.23.77.43,1.54.62,2.32.09.38.17.77.25,1.16,0,.1,0,.2,0,.3.14.66.25,1.34.34,2a36.05,36.05,0,0,1,.3,3.62C2116.85,1090.28,2116.86,1090.72,2116.86,1091.16Z"/><rect class="cls-2" x="286.14" y="533.74" width="1830.86" height="628.5" rx="82.4" ry="82.4"/><rect class="cls-3" x="378.65" y="1186.79" width="1643.56" height="68.56" rx="34.28" ry="34.28"/><rect class="cls-3" x="1020.57" y="1016.34" width="359.72" height="119.99" rx="34.5" ry="34.5"/><rect class="cls-3" x="368.11" y="591.62" width="1665.89" height="51.42" rx="14.42" ry="14.42"/><rect class="cls-3" x="368.11" y="674.47" width="1665.89" height="51.42" rx="14.42" ry="14.42"/><path class="cls-3" d="M593.35,1421.26c-11.36,18.52-23,36.59-31.81,54.94l-1.68,3.43c-.57,1.14-1.13,2.28-1.61,3.43l-3,6.86-2.72,6.87c-.23.57-.47,1.14-.68,1.72l-.58,1.72-1.19,3.43a137.27,137.27,0,0,0-6.3,27.31,97.29,97.29,0,0,0,.51,26.7,101.34,101.34,0,0,0,8.16,25.77,165.27,165.27,0,0,0,14.91,25.13c1.51,2.08,3,4.18,4.55,6.27s3.13,4.18,4.8,6.28c3.23,4.2,6.65,8.44,10.1,12.69l10.5,13c3.48,4.38,7,8.84,10.43,13.35a274.57,274.57,0,0,1,19,28.24c1.4,2.44,2.7,4.93,4,7.4l1.83,3.77c.6,1.25,1.23,2.5,1.76,3.78,1.09,2.55,2.29,5.06,3.18,7.65l1.44,3.87c.45,1.29.84,2.59,1.26,3.89a116.94,116.94,0,0,1,2.39,62.92,149.88,149.88,0,0,1-10.66,30c-1.22,2.43-2.38,4.85-3.63,7.25s-2.67,4.76-4.06,7.11l-1,1.77-1.12,1.75-2.23,3.49c-.75,1.16-1.47,2.32-2.25,3.47s-1.62,2.28-2.43,3.42c-1.65,2.27-3.24,4.54-4.93,6.78l-5.34,6.64-2.73,3.29c-.95,1.08-1.9,2.16-2.88,3.23-1.94,2.15-3.89,4.29-5.91,6.4.68-2.47,1.43-4.91,2.2-7.34.36-1.22.77-2.43,1.17-3.64l1-3.65,2.16-7.25c.6-2.43,1.3-4.84,1.94-7.25a255.36,255.36,0,0,0,5.95-28.77,177.81,177.81,0,0,0,1.91-28.33,134.17,134.17,0,0,0-3.28-27.6c-4.11-18.09-12.3-35.34-23.7-52.13-5.72-8.4-12.09-16.74-18.91-25.14-3.42-4.22-6.88-8.44-10.46-12.72l-10.67-13c-3.53-4.43-7.09-8.87-10.51-13.47s-6.75-9.26-9.89-14c-1.52-2.43-3.1-4.81-4.52-7.3l-2.17-3.7-2-3.77-1-1.89-.92-1.92-1.83-3.83c-.58-1.29-1.1-2.6-1.64-3.9s-1.09-2.6-1.53-3.93c-.92-2.64-1.9-5.27-2.6-8-.36-1.34-.77-2.67-1.09-4l-.86-4-.43-2-.31-2-.57-4.08c-.19-1.35-.22-2.72-.33-4.08s-.22-2.72-.24-4.08a100.15,100.15,0,0,1,4.65-32.13,134.83,134.83,0,0,1,13.85-30.09l2.23-3.59,1.13-1.79c.39-.59.81-1.17,1.21-1.76,1.64-2.33,3.25-4.67,4.93-7l5.32-6.8c.88-1.14,1.83-2.25,2.78-3.35l2.85-3.31,2.87-3.3,3-3.22c2.06-2.14,4-4.3,6.15-6.39,4.32-4.16,8.48-8.35,13.12-12.33A327.42,327.42,0,0,1,593.35,1421.26Z"/><path class="cls-3" d="M1011.35,1421.26c-11.36,18.52-23,36.59-31.81,54.94l-1.68,3.43c-.57,1.14-1.13,2.28-1.61,3.43l-3,6.86-2.72,6.87c-.23.57-.47,1.14-.68,1.72l-.58,1.72-1.19,3.43a137.27,137.27,0,0,0-6.3,27.31,97.29,97.29,0,0,0,.51,26.7,101.34,101.34,0,0,0,8.16,25.77,165.27,165.27,0,0,0,14.91,25.13c1.51,2.08,3,4.18,4.55,6.27s3.13,4.18,4.8,6.28c3.23,4.2,6.65,8.44,10.1,12.69l10.5,13c3.48,4.38,7,8.84,10.43,13.35a274.57,274.57,0,0,1,19,28.24c1.4,2.44,2.7,4.93,4,7.4l1.83,3.77c.6,1.25,1.23,2.5,1.76,3.78,1.09,2.55,2.29,5.06,3.18,7.65l1.44,3.87c.45,1.29.84,2.59,1.26,3.89a116.94,116.94,0,0,1,2.39,62.92,149.88,149.88,0,0,1-10.66,30c-1.22,2.43-2.38,4.85-3.63,7.25s-2.67,4.76-4.06,7.11l-1,1.77-1.12,1.75-2.23,3.49c-.75,1.16-1.47,2.32-2.25,3.47s-1.62,2.28-2.43,3.42c-1.65,2.27-3.24,4.54-4.93,6.78l-5.34,6.64-2.73,3.29c-.95,1.08-1.9,2.16-2.88,3.23-1.94,2.15-3.89,4.29-5.91,6.4.68-2.47,1.43-4.91,2.2-7.34.36-1.22.77-2.43,1.17-3.64l1-3.65,2.16-7.25c.6-2.43,1.3-4.84,1.94-7.25a255.36,255.36,0,0,0,5.95-28.77,177.81,177.81,0,0,0,1.91-28.33,134.17,134.17,0,0,0-3.28-27.6c-4.11-18.09-12.3-35.34-23.7-52.13-5.72-8.4-12.09-16.74-18.91-25.14-3.42-4.22-6.88-8.44-10.46-12.72l-10.67-13c-3.53-4.43-7.09-8.87-10.51-13.47s-6.75-9.26-9.89-14c-1.52-2.43-3.1-4.81-4.52-7.3l-2.17-3.7-2-3.77-1-1.89-.92-1.92-1.83-3.83c-.58-1.29-1.1-2.6-1.64-3.9s-1.09-2.6-1.53-3.93c-.92-2.64-1.9-5.27-2.6-8-.36-1.34-.77-2.67-1.09-4l-.86-4-.43-2-.31-2-.57-4.08c-.19-1.35-.22-2.72-.33-4.08s-.22-2.72-.24-4.08a100.15,100.15,0,0,1,4.65-32.13,134.83,134.83,0,0,1,13.85-30.09l2.23-3.59,1.13-1.79c.39-.59.81-1.17,1.21-1.76,1.64-2.33,3.25-4.67,4.93-7l5.32-6.8c.88-1.14,1.83-2.25,2.78-3.35l2.85-3.31,2.87-3.3,3-3.22c2.06-2.14,4-4.3,6.15-6.39,4.32-4.16,8.48-8.35,13.12-12.33A327.42,327.42,0,0,1,1011.35,1421.26Z"/><path class="cls-3" d="M1429.35,1421.26c-11.36,18.52-22.95,36.59-31.81,54.94l-1.68,3.43c-.57,1.14-1.13,2.28-1.61,3.43l-3,6.86-2.72,6.87c-.23.57-.47,1.14-.68,1.72l-.58,1.72-1.19,3.43a137.27,137.27,0,0,0-6.3,27.31,97.29,97.29,0,0,0,.51,26.7,101.34,101.34,0,0,0,8.16,25.77,165.27,165.27,0,0,0,14.91,25.13c1.51,2.08,3,4.18,4.55,6.27s3.13,4.18,4.8,6.28c3.23,4.2,6.65,8.44,10.1,12.69l10.5,13c3.48,4.38,7,8.84,10.43,13.35a274.57,274.57,0,0,1,19,28.24c1.4,2.44,2.7,4.93,4,7.4l1.83,3.77c.6,1.25,1.23,2.5,1.76,3.78,1.09,2.55,2.29,5.06,3.18,7.65l1.44,3.87c.45,1.29.84,2.59,1.26,3.89a116.94,116.94,0,0,1,2.39,62.92,149.88,149.88,0,0,1-10.66,30c-1.22,2.43-2.38,4.85-3.63,7.25s-2.67,4.76-4.06,7.11l-1,1.77-1.12,1.75-2.23,3.49c-.75,1.16-1.47,2.32-2.25,3.47s-1.62,2.28-2.43,3.42c-1.65,2.27-3.24,4.54-4.93,6.78l-5.34,6.64-2.73,3.29c-1,1.08-1.9,2.16-2.88,3.23-1.94,2.15-3.89,4.29-5.91,6.4.68-2.47,1.43-4.91,2.2-7.34.36-1.22.77-2.43,1.17-3.64l1-3.65,2.16-7.25c.6-2.43,1.3-4.84,1.94-7.25a255.36,255.36,0,0,0,6-28.77,177.81,177.81,0,0,0,1.91-28.33,134.17,134.17,0,0,0-3.28-27.6c-4.11-18.09-12.3-35.34-23.7-52.13-5.72-8.4-12.09-16.74-18.91-25.14-3.42-4.22-6.88-8.44-10.46-12.72l-10.67-13c-3.53-4.43-7.09-8.87-10.51-13.47s-6.75-9.26-9.89-14c-1.52-2.43-3.1-4.81-4.52-7.3l-2.17-3.7-2-3.77-1-1.89-.92-1.92-1.83-3.83c-.58-1.29-1.1-2.6-1.64-3.9s-1.09-2.6-1.53-3.93c-.92-2.64-1.9-5.27-2.6-8-.36-1.34-.77-2.67-1.09-4l-.86-4-.43-2-.31-2-.57-4.08c-.19-1.35-.22-2.72-.33-4.08s-.22-2.72-.24-4.08a100.15,100.15,0,0,1,4.65-32.13,134.83,134.83,0,0,1,13.85-30.09l2.23-3.59,1.13-1.79c.39-.59.81-1.17,1.21-1.76,1.64-2.33,3.25-4.67,4.93-7l5.32-6.8c.88-1.14,1.83-2.25,2.78-3.35l2.85-3.31,2.87-3.3,3-3.22c2.06-2.14,4-4.3,6.15-6.39,4.32-4.16,8.48-8.35,13.12-12.33A327.42,327.42,0,0,1,1429.35,1421.26Z"/><path class="cls-3" d="M1847.35,1421.26c-11.36,18.52-22.95,36.59-31.81,54.94l-1.68,3.43c-.57,1.14-1.13,2.28-1.61,3.43l-3,6.86-2.72,6.87c-.23.57-.47,1.14-.68,1.72l-.58,1.72-1.19,3.43a137.27,137.27,0,0,0-6.3,27.31,97.29,97.29,0,0,0,.51,26.7,101.34,101.34,0,0,0,8.16,25.77,165.27,165.27,0,0,0,14.91,25.13c1.51,2.08,3,4.18,4.55,6.27s3.13,4.18,4.8,6.28c3.23,4.2,6.65,8.44,10.1,12.69l10.5,13c3.48,4.38,7,8.84,10.43,13.35a274.57,274.57,0,0,1,19,28.24c1.4,2.44,2.7,4.93,4,7.4l1.83,3.77c.6,1.25,1.23,2.5,1.76,3.78,1.09,2.55,2.29,5.06,3.18,7.65l1.44,3.87c.45,1.29.84,2.59,1.26,3.89a116.94,116.94,0,0,1,2.39,62.92,149.88,149.88,0,0,1-10.66,30c-1.22,2.43-2.38,4.85-3.63,7.25s-2.67,4.76-4.06,7.11l-1,1.77-1.12,1.75-2.23,3.49c-.75,1.16-1.47,2.32-2.25,3.47s-1.62,2.28-2.43,3.42c-1.65,2.27-3.24,4.54-4.93,6.78l-5.34,6.64-2.73,3.29c-1,1.08-1.9,2.16-2.88,3.23-1.94,2.15-3.89,4.29-5.91,6.4.68-2.47,1.43-4.91,2.2-7.34.36-1.22.77-2.43,1.17-3.64l1-3.65,2.16-7.25c.6-2.43,1.3-4.84,1.94-7.25a255.36,255.36,0,0,0,6-28.77,177.81,177.81,0,0,0,1.91-28.33,134.17,134.17,0,0,0-3.28-27.6c-4.11-18.09-12.3-35.34-23.7-52.13-5.72-8.4-12.09-16.74-18.91-25.14-3.42-4.22-6.88-8.44-10.46-12.72l-10.67-13c-3.53-4.43-7.09-8.87-10.51-13.47s-6.75-9.26-9.89-14c-1.52-2.43-3.1-4.81-4.52-7.3l-2.17-3.7-2-3.77-1-1.89-.92-1.92-1.83-3.83c-.58-1.29-1.1-2.6-1.64-3.9s-1.09-2.6-1.53-3.93c-.92-2.64-1.9-5.27-2.6-8-.36-1.34-.77-2.67-1.09-4l-.86-4-.43-2-.31-2-.57-4.08c-.19-1.35-.22-2.72-.33-4.08s-.22-2.72-.24-4.08a100.15,100.15,0,0,1,4.65-32.13,134.83,134.83,0,0,1,13.85-30.09l2.23-3.59,1.13-1.79c.39-.59.81-1.17,1.21-1.76,1.64-2.33,3.25-4.67,4.93-7l5.32-6.8c.88-1.14,1.83-2.25,2.78-3.35l2.85-3.31,2.87-3.3,3-3.22c2.06-2.14,4-4.3,6.15-6.39,4.32-4.16,8.48-8.35,13.12-12.33A327.42,327.42,0,0,1,1847.35,1421.26Z"/></g></svg>