<svg xmlns="http://www.w3.org/2000/svg" viewBox="0 0 2400 2400"><defs><style>.cls-1{fill:#ffbc45;}.cls-2{fill:#ffe46c;}</style></defs><title>Artboard 4</title><g id="Layer_4" data-name="Layer 4"><path class="cls-1" d="M1014.61,1771.34c-127.54,119.69-328,113.17-447.54-14.65a315.3,315.3,0,0,1-84.8-227.15,314.83,314.83,0,0,0,84.8,204.52c119.5,127.83,320,134.35,447.54,14.66a315.3,315.3,0,0,0,99.67-219.32A315.51,315.51,0,0,1,1014.61,1771.34Z"/><path class="cls-1" d="M1917.91,589.09l-7.83,246.17a37.08,37.08,0,0,1-38.24,35.89l-83.73-2.67A28.26,28.26,0,0,0,1759,895.83l-2.66,83.73a37.09,37.09,0,0,1-38.25,35.89l-83.73-2.66a28.24,28.24,0,0,0-29.14,27.34l-2.67,83.73a37.08,37.08,0,0,1-38.24,35.89l-83.73-2.66a28.26,28.26,0,0,0-29.14,27.34l-2.66,83.73a37.09,37.09,0,0,1-38.25,35.9l-83.73-2.66a28.26,28.26,0,0,0-29.14,27.34l-2.66,83.73a37.1,37.1,0,0,1-38.25,35.89L1143,1444.75l-31.56,29.61c-.9-6.53-2-13-3.32-19.49l34.88-32.74,113.69,3.61a37.11,37.11,0,0,0,38.25-35.89l2.66-83.73a28.26,28.26,0,0,1,29.14-27.35l83.73,2.66a37.08,37.08,0,0,0,38.25-35.89l2.66-83.73a28.26,28.26,0,0,1,29.14-27.34l83.73,2.66a37.08,37.08,0,0,0,38.24-35.89l2.67-83.73a28.26,28.26,0,0,1,29.14-27.35l83.73,2.67a37.1,37.1,0,0,0,38.25-35.89l2.66-83.73a28.26,28.26,0,0,1,29.14-27.35l83.73,2.66a37.07,37.07,0,0,0,38.24-35.89l7.35-230.86A37.7,37.7,0,0,1,1917.91,589.09Z"/><path class="cls-2" d="M1882,550.84,1635.85,543a37,37,0,0,0-26.55,10l-.06-.06L881.82,1235.57c-101.84-27.82-215.24-4-298.31,72.75a315.42,315.42,0,0,0-101.24,221.22,314.83,314.83,0,0,0,84.8,204.52c119.5,127.83,320,134.35,447.54,14.66a315.3,315.3,0,0,0,99.67-219.32,318.89,318.89,0,0,0-6.13-51.91l3.32-3.13c-.9-6.53-2-13-3.32-19.49l34.88-32.74,113.69,3.61a37.11,37.11,0,0,0,38.25-35.89l2.66-83.73a28.26,28.26,0,0,1,29.14-27.35l83.73,2.66a37.08,37.08,0,0,0,38.25-35.89l2.66-83.73a28.26,28.26,0,0,1,29.14-27.34l83.73,2.66a37.08,37.08,0,0,0,38.24-35.89l2.67-83.73a28.26,28.26,0,0,1,29.14-27.35l83.73,2.67a37.1,37.1,0,0,0,38.25-35.89l2.66-83.73a28.26,28.26,0,0,1,29.14-27.35l83.73,2.66a37.07,37.07,0,0,0,38.24-35.89l7.35-230.86A37.11,37.11,0,0,0,1882,550.84ZM803.64,1727.77a139.78,139.78,0,0,1-235-91,139.78,139.78,0,0,1,278.71,0A139.23,139.23,0,0,1,803.64,1727.77Z"/><rect class="cls-1" x="910.87" y="990.2" width="1021.29" height="57.37" rx="28.68" ry="28.68" transform="translate(-312.28 1248.61) rotate(-43.18)"/><path class="cls-1" d="M847.35,1636.73a139.78,139.78,0,0,0-278.71,0,139.78,139.78,0,1,1,278.71,0Z"/></g></svg>