<svg xmlns="http://www.w3.org/2000/svg" viewBox="0 0 2400 2400"><defs><style>.cls-1{fill:#15db88;}.cls-2{fill:#15c26b;}.cls-3{fill:#ebeff0;}</style></defs><title>Artboard 5</title><g id="Layer_6" data-name="Layer 6"><path class="cls-1" d="M1997,855.22V1678.5c-1.53,3.94-1.14,8.17-1.36,12.2-1.24,23.38-11.74,42.7-26.36,60-23.54,27.82-53.41,44.46-89.83,48.86a109.71,109.71,0,0,1-13.18.62q-664.69,0-1329.41-.05c-58,0-108.69-39.25-126.27-91.31-3.4-10-3.88-20.75-5-31.27q-.09-410.62,0-821.25c1.36-6.82,1.26-13.78,2.69-20.68,9.31-44.87,37.58-73.62,77.71-92.34,18.41-8.59,38.28-10.76,58.27-11.15,23.29-.46,46.58-.12,69.88-.12q619.19,0,1238.38,0c25.87,0,51.07,3.23,74.36,15.69,29.4,15.73,50.7,38.8,63.61,69.58,4.29,10.2,4.65,21.11,5.71,31.9C1996.42,851.2,1995.73,853.34,1997,855.22Z"/><path class="cls-2" d="M1997,855.22c-1.55-6.76-3-13.55-4.68-20.27-13-51.33-57.6-91-110-97.42a227.36,227.36,0,0,0-27.81-2q-654.24.16-1308.49.12c-40.66,0-76.16,12.88-104.32,43.14-18.72,20.11-29.55,44-33.77,71.1-.28,1.76-.84,3.47-1.27,5.21,0-42.45-1.26-84.95.33-127.34,2.46-66,58.69-121.55,124.65-123.55,16.8-.51,27.65-4.27,38.6-18.65,25.5-33.48,61.84-48.21,103.75-48.36,64.72-.23,129.44-.43,194.16.07,49.1.37,87.66,21.14,114.53,62.62,1.79,2.77,3.62,4,6.84,3.68a58.44,58.44,0,0,1,6.21,0q432.2,0,864.39,0c52.15,0,92.06,22.22,119.23,66.76,8.51,13.95,17.7,42.13,17.7,81.49"/><path class="cls-2" d="M1997,1748.41c0,3.48,0,4.08,0,5.28-1.26,37.64-31.48,65.16-39.07,72.07-27.14,24.71-60.17,37.06-97.47,37.16-56.16.16-112.32,0-168.49,0q-573.39,0-1146.78,0c-47.42,0-86-17.6-114.2-56.19a122.84,122.84,0,0,1-24.14-67.71c-.94-20.14-.23-40.35-.24-60.54,3.07,14.66,6.42,29.16,13.08,42.81,13.81,28.29,34.91,49,63.15,62.59,20.23,9.71,41.71,12.73,64.05,12.72q656.41-.23,1312.83-.08c53.59,0,93.87-23.26,121-69.11,7.78-13.17,12.42-27.84,14.64-43.12.3-2,.21-4.16,1.67-5.86C1996.83,1697.43,1996.76,1720.92,1997,1748.41Z"/><path class="cls-3" d="M805.67,1308.68c-.11-16.29-1.91-32.51-1.64-48.84,3-179.22,125.9-334.77,299.58-378.93,217.46-55.3,437.07,79.91,486.33,299.46,9.48,42.27,11.41,85,7.38,128.1,1.45,22.5-3,44.22-9,65.7a394.63,394.63,0,0,1-65.17,132.17c-38.67,51.57-86.9,91.92-144.76,120.37a393.74,393.74,0,0,1-134.27,38.44q-102.81,10.65-198.07-28.83c-39.22-16.31-74.63-38.83-106.79-66.68A399.85,399.85,0,0,1,837.6,1435.13c-15.17-32.48-26.69-66.21-30.72-102.06C806,1325,804.43,1316.89,805.67,1308.68Z"/><path class="cls-2" d="M805.67,1308.68c13.07,100.79,55.64,186.43,131.66,254.54,53,47.46,114.42,79.13,184.28,92.44,126.34,24.07,240-4.55,338.55-87.58,68.78-57.94,111.63-132.19,130.69-220,2.83-13,4.35-26.37,6.47-39.57,2.34,2.57,1.89,5.77,2,8.84,1.63,58.45-8.26,114.78-30.81,168.81-17.09,40.94-40.63,77.72-70,111-35.83,40.49-78.3,72-127,95.1A394.9,394.9,0,0,1,1252.09,1727a401.94,401.94,0,0,1-75.84,2.45,388.81,388.81,0,0,1-129.92-30.69A397.42,397.42,0,0,1,819.74,1443.3c-12-41.31-16.84-83.49-15.68-126.42C804.13,1314.06,803.77,1311.15,805.67,1308.68Z"/><path class="cls-2" d="M1765.51,869.15c29.75,0,59.5.22,89.25-.16,7.59-.09,10.63,1.76,10.32,9.91-.59,15.75-.36,31.55-.08,47.33.11,5.93-1.72,8.2-7.94,8.18q-91.57-.27-183.15,0c-6.25,0-8-2.3-7.92-8.21.27-16.29.34-32.6,0-48.89-.14-6.69,2.63-8.3,8.75-8.26C1705,869.26,1735.25,869.15,1765.51,869.15Z"/><path class="cls-3" d="M1764.66,1001.24c-30.54,0-61.07-.14-91.6.12-5.6,0-7.63-1.16-7.48-7.19.42-17.06.35-34.15,0-51.22-.1-5.54,1.15-7.61,7.21-7.58q92.37.33,184.74,0c5.28,0,7.22,1.38,7.12,6.93-.32,17.07-.36,34.16,0,51.23.13,6-1.41,7.9-7.68,7.83C1826.24,1001.05,1795.45,1001.24,1764.66,1001.24Z"/><path class="cls-1" d="M1201.78,1530.62c-147.25-1.26-265-117.64-265-265.25,0-146.28,116.51-264.35,264.38-264.83,144.78-.47,265,114.66,265.39,264.57C1466.87,1411.54,1350.21,1529.09,1201.78,1530.62Z"/></g></svg>