<svg xmlns="http://www.w3.org/2000/svg" viewBox="0 0 2400 2400"><defs><style>.cls-1{fill:#ff8298;}.cls-2{fill:#ff4163;}.cls-3{fill:#ff234a;}.cls-4{fill:#ffbdc7;}</style></defs><title>Artboard 6</title><g id="Layer_5" data-name="Layer 5"><path class="cls-1" d="M1336,995.32v435.54h-.38V1023.74c0-43.82-26.33-79.33-58.78-79.33H1122.4c-30.2,0-55.07,30.72-58.4,70.29V995.32c0-43.82,26.31-79.34,58.78-79.34h154.44C1309.68,916,1336,951.5,1336,995.32Z"/><path class="cls-2" d="M1335.81,1023.74v247.12H1064.19V1014.7c3.33-39.57,28.2-70.29,58.4-70.29H1277C1309.48,944.41,1335.81,979.92,1335.81,1023.74Z"/><path class="cls-1" d="M1981.85,1266.32c40.81,0,73.89,30.74,73.89,68.65v106.3c0,67.26-127.7,121.8-285.24,121.8s-285.25-54.54-285.25-121.8c0,67.26-127.7,121.8-285.25,121.8s-285.25-54.54-285.25-121.8c0,67.26-127.7,121.8-285.25,121.8s-285.24-54.54-285.24-121.8V1335c0-37.91,33.08-68.65,73.89-68.65Z"/><path class="cls-3" d="M2055.74,1921v34.37c0,33.71-29.42,61.06-65.72,61.06H410c-36.3,0-65.72-27.35-65.72-61.06V1921c0,33.71,29.42,61,65.72,61H1990C2026.32,1982,2055.74,1954.66,2055.74,1921Z"/><path class="cls-2" d="M2055.74,1441.27V1921c0,33.71-29.42,61-65.72,61H410c-36.3,0-65.72-27.34-65.72-61V1441.27c0,67.27,127.7,121.8,285.24,121.8s285.25-54.53,285.25-121.8c0,67.27,127.7,121.8,285.25,121.8s285.25-54.53,285.25-121.8c0,67.27,127.7,121.8,285.25,121.8S2055.74,1508.54,2055.74,1441.27Z"/><path class="cls-4" d="M1351.76,764.22a151.76,151.76,0,0,1-303.52,0c0-83.82,0-202.61,152.55-380.6C1351.76,583.85,1351.76,680.4,1351.76,764.22Z"/><path class="cls-1" d="M1263.88,852.1a63.88,63.88,0,0,1-127.76,0c0-35.27,0-85.27,64.21-160.19C1263.88,776.19,1263.88,816.83,1263.88,852.1Z"/></g></svg>