<svg xmlns="http://www.w3.org/2000/svg" viewBox="0 0 1919.82 874.27"><defs><style>.cls-1{fill:#f3f2f2;}.cls-2{fill:#dcdcdd;}.cls-3{fill:#5eb1d3;}.cls-4{fill:#4d4d4d;}.cls-5{fill:#f5d8e5;}.cls-6{opacity:0.05;}.cls-7{fill:#d64e71;}.cls-8{fill:#fde5d7;}.cls-9{opacity:0.3;}.cls-10{fill:#d3d3d5;}.cls-11{fill:#d66994;}.cls-12{fill:#f4a5c5;}.cls-13{fill:#c6daf0;}.cls-14{opacity:0.04;}.cls-15{fill:#b3c0d2;}.cls-16,.cls-39{fill:#fff;}.cls-16,.cls-20{opacity:0.5;}.cls-17{fill:gray;}.cls-18{fill:#a25667;}.cls-19{fill:#fdd3a2;}.cls-21{fill:#f17c95;}.cls-22,.cls-24{opacity:0.2;}.cls-23,.cls-24{fill:#d31c5b;}.cls-25{fill:#1a1a1a;}.cls-25,.cls-36{opacity:0.1;}.cls-26{fill:#bc425b;}.cls-27{fill:#accbc4;}.cls-28{fill:#00a99d;}.cls-29{fill:#f2f2f2;}.cls-30{fill:#fbb03b;}.cls-31{fill:#f69220;}.cls-32{fill:#a5cfed;}.cls-33{fill:#91caec;}.cls-34{fill:#b8babc;}.cls-35{fill:#e9bb62;}.cls-37{fill:#e58925;}.cls-38{fill:#fbb26c;}.cls-40{fill:#e55881;}.cls-41{fill:#d5d6d5;}.cls-42{fill:#b1904b;}.cls-43{fill:#d1d2d4;}.cls-44{fill:#c28b55;}.cls-45{fill:#393e70;}</style></defs><title>shopping</title><g id="Clouds"><path class="cls-1" d="M383,770.23l-.77,0a26.65,26.65,0,0,0-45.44-13.05,33.71,33.71,0,0,0-26.86,25.68c-.28,0-.56,0-.84,0a20.36,20.36,0,1,0,14.17,35,33.66,33.66,0,0,0,40.94-1.44A26.9,26.9,0,1,0,383,770.23Z" transform="translate(0.06 -455.26)"/><path class="cls-1" d="M149.79,527.82l-.77,0a26.65,26.65,0,0,0-45.44-13.05,33.72,33.72,0,0,0-26.86,25.68c-.28,0-.56,0-.84,0a20.36,20.36,0,1,0,14.17,35A33.66,33.66,0,0,0,131,573.94a26.9,26.9,0,1,0,18.82-46.12Z" transform="translate(0.06 -455.26)"/><path class="cls-1" d="M944.74,717.39l-1,0a34.22,34.22,0,0,0-58.35-16.76,43.28,43.28,0,0,0-34.48,33c-.36,0-.72-.06-1.08-.06A26.14,26.14,0,1,0,868,778.46a43.24,43.24,0,0,0,52.56-1.85,34.54,34.54,0,1,0,24.16-59.21Z" transform="translate(0.06 -455.26)"/><path class="cls-1" d="M1815.12,480.9l-.93,0a32,32,0,0,0-54.63-15.69,40.25,40.25,0,0,0-14.07,5.4,24.42,24.42,0,0,0-26.3,6,30.9,30.9,0,0,0-24.61,23.53c-.26,0-.51,0-.77,0a18.66,18.66,0,1,0,11.64,33.22,24.45,24.45,0,0,0,37.85,4.69,40.48,40.48,0,0,0,49.21-1.73,32.33,32.33,0,1,0,22.62-55.44Z" transform="translate(0.06 -455.26)"/><path class="cls-1" d="M1904.42,761.07c0-.13,0-.26,0-.39a26.9,26.9,0,0,0-26.9-26.9l-.78,0a26.65,26.65,0,0,0-45.44-13.05,33.71,33.71,0,0,0-26.86,25.68c-.28,0-.56,0-.84,0a20.36,20.36,0,0,0-19.54,14.69Z" transform="translate(0.06 -455.26)"/><path class="cls-2" d="M599.11,505.43c0-.13,0-.26,0-.39a26.9,26.9,0,0,0-26.9-26.9l-.78,0A26.65,26.65,0,0,0,526,465.11a33.71,33.71,0,0,0-26.86,25.68c-.28,0-.56,0-.84,0a20.36,20.36,0,0,0-19.54,14.69Z" transform="translate(0.06 -455.26)"/><path class="cls-1" d="M862.06,558.06c0-.27,0-.53,0-.81a56,56,0,0,0-56-56c-.54,0-1.07,0-1.61,0a55.5,55.5,0,0,0-94.63-27.18,70.21,70.21,0,0,0-55.94,53.47c-.59,0-1.16-.09-1.75-.09a42.39,42.39,0,0,0-40.7,30.59Z" transform="translate(0.06 -455.26)"/></g><g id="City_Background" data-name="City Background"><rect class="cls-3" x="1443.56" y="646.28" width="11.04" height="21.57"/><path class="cls-3" d="M1913.35,1190.28h-9.17v-46.47h-48.71V890.2h-32v119.28h-83.26V972.83H1691.5v36.65h-19V772h-43.07v93.15h-74.84v63.3h-26v-155H1503.7V880.42h-20.13V820.89H1448v22.89h3.5v15.35H1448V910.6h3.89v15.35H1448v2.55h-28.29V1040h-38.52V739.23H1267.63V845h-35V619h-33.56v421H1172V681.12h-74.65V796.59H1014.1V688.23h6.22c6.87,0,12.44-6.89,12.44-15.4V662.77c0-8.5-5.57-15.4-12.44-15.4h-7.66c0-15.7-10.28-28.42-23-28.42s-23,12.72-23,28.42h-7.65c-6.87,0-12.44,6.89-12.44,15.4v10.06c0,8.5,5.57,15.4,12.44,15.4h7.65V1040H897.82V909H854.75v256.69H819.69V753.45h-126v321.77H673.87v90.41H645.31V928.49h15.57V901.85H645.31V882.31H633V845h-44.2v37.3H577.28v19.54H562.2v26.64h15.08v237.15H536.94V845h-17.1l0-26h-66.3v26H442v320.64h-7.7V899.18H410.34v266.46H390.26V972.54H342.63v193.09H323.18V932.92H291.6v-63H213V1127.1h-7.43V960.47H144.16V1127.1H131v50.67H113.94V1041.08H63.65v48.07H48.16V986.41H33.3v191.36h-12v-163.1H.06v13.65H2.15v9.15H.06v30.68H5.76v9.15H.06v54H7.27v4.29H.06v52.78H3.88v12.86H.06v104H137.3v15.15H1750.42v-12.12h162.93ZM50.91,1108.52H66v9.15H50.91Zm-.39,41.74H65.63v9.15H50.53Zm21.87,84.81H62v-12.86H72.4Zm3.31-166.92H90.82v9.15H75.71Zm22.66,67.7H83.27v-9.15H98.37Zm147.1-219.22H256v13H245.47Zm0,66.36H256v13H245.47Zm0,66.36H256v13H245.47Zm0,66.36H256v13H245.47ZM222,887.62h10.53v13H222ZM222,954h10.53v13H222Zm0,66.36h10.53v13H222Zm0,66.35h1.91v13H222Zm-9,49.17v14.41h-7.43v-14.41ZM179.91,1160v-7.8h6.36v7.8Zm0-190.35h15v18.62h-15Zm0,34.35h15v18.62h-15Zm0,34.35h15V1057h-15Zm0,34.35h15v18.62h-15Zm0,34.34h15v18.62h-15ZM152.16,969.66h15v18.62h-15Zm0,34.35h15v18.62h-15Zm0,34.35h15V1057h-15Zm0,34.35h15v18.62h-15Zm-18.59,63.15h10.59v14.41H133.57Zm.62,92.71V1183h3.11v45.57Zm145.26-70.82H268.92v-13h10.53Zm0-66.36H268.92v-13h10.53Zm0-66.36H268.92v-13h10.53Zm0-66.36H268.92v-13h10.53ZM302.9,1120.4H292.37v-13H302.9Zm0-66.36H292.37v-13H302.9Zm0-66.36H292.37v-13H302.9Zm79,159.15h-33.5v-9.25h33.5Zm0-20.31h-33.5v-9.25h33.5Zm0-20.32h-33.5V1097h33.5Zm0-20.31h-33.5v-9.24h33.5Zm0-20.31h-33.5v-9.24h33.5Zm0-20.31h-33.5V1036h33.5Zm0-20.32h-33.5v-9.24h33.5Zm0-20.31h-33.5v-9.24h33.5Zm90-5.06H455.56V979.44h16.27Zm0-112H455.56V867.48h16.27Zm28,163.48H483.55V1031h16.27ZM508,932.33H491.69V912.19H508Zm16.27-44.71H508V867.48h16.27Zm187-88.82h16.27v20.13H711.28Zm0,123.47h16.27v20.13H711.28Zm24.41,189.4H719.41v-20.13h16.27Zm15.57-112.08H735V979.44h16.27Zm38.28-101.89H773.27V877.55h16.27Zm0-68.69H773.27V808.86h16.27Zm111,337H877.7v-28.3h22.87Zm66.16-38H943.86v-28.3h22.87Zm102.21,14.15h-22.87v-28.3h22.87Zm28.43-102.2H1014.1V819h83.26Zm15.16-328.81h16.27v20.13h-16.27Zm8.14,196.6H1104.4V887.62h16.27Zm0-109h16.27v20.13h-16.27Zm27.71,292.73h-22.87v-28.3h22.87Zm7.47-144.41h-16.27v-9.44h16.27Zm96-59.5h33.24v20.13h-33.24Zm-.85,91.82h33.23v20.14H1251ZM1299.13,1166h-22.87v-28.3h22.87Zm7.29-367.23h33.24v20.13h-33.24Zm49.86,149H1323V927.6h33.24Zm316.66,156.95v-1.45h17.43v1.45Zm18.48-80.53v24.16h-18.9v-24.16ZM1651,1094.47h-12v-8.72h12ZM1574.85,910.6h25.34v15.35h-25.34Zm-25.18,73.12v9.95h-16.41v-9.95Zm-116-36H1448v31.69h-14.25Zm1.37,103.72H1448v60.74h6.39v21.57H1448v17.94h-12.88Zm315.45,124.16h-.11v-10h-12.34v-14.18h12.45Zm9.77-99.86h-19.53v-24.17h19.53Zm51.83-27.43H1792.6v-24.16h19.53Zm25.42,105.22H1818v-24.17h19.53Z" transform="translate(0.06 -455.26)"/><rect class="cls-3" x="6.53" y="665.35" width="0.19" height="4.29"/></g><g id="Ground"><rect class="cls-4" x="0.01" y="843.57" width="1919.8" height="30"/></g><g id="La_Tahzan_Cafe" data-name="La&apos;Tahzan Cafe"><rect class="cls-5" x="228.46" y="576.87" width="577.21" height="266.14"/><path class="cls-6" d="M785.76,1033.52H229.13V1094H230c11.37,0,20.58-5.38,20.58-12,0,6.63,9.21,12,20.58,12s20.58-5.38,20.58-12c0,6.63,9.21,12,20.58,12s20.58-5.38,20.58-12c0,6.63,9.22,12,20.58,12s20.58-5.38,20.58-12c0,6.63,9.22,12,20.58,12s20.58-5.38,20.58-12c0,6.63,9.21,12,20.58,12s20.58-5.38,20.58-12c0,6.63,9.22,12,20.58,12s20.58-5.38,20.58-12c0,6.63,9.22,12,20.58,12s20.58-5.38,20.58-12c0,6.63,9.22,12,20.58,12s20.58-5.38,20.58-12c0,6.63,9.21,12,20.58,12s20.58-5.38,20.58-12c0,6.63,9.22,12,20.58,12s20.58-5.38,20.58-12c0,6.63,9.21,12,20.58,12s20.58-5.38,20.58-12c0,6.63,9.21,12,20.58,12s20.58-5.38,20.58-12c0,6.63,9.21,12,20.58,12s20.58-5.38,20.58-12c0,6.63,9.21,12,20.58,12v-60.46Z" transform="translate(0.06 -455.26)"/><path class="cls-7" d="M209.45,982v83.07a20.58,20.58,0,0,0,41.16,0V982Z" transform="translate(0.06 -455.26)"/><path class="cls-8" d="M250.62,982v83.07a20.58,20.58,0,0,0,41.17,0V982Z" transform="translate(0.06 -455.26)"/><path class="cls-7" d="M291.78,982v83.07a20.58,20.58,0,0,0,41.16,0V982Z" transform="translate(0.06 -455.26)"/><path class="cls-8" d="M332.94,982v83.07a20.58,20.58,0,0,0,41.16,0V982Z" transform="translate(0.06 -455.26)"/><path class="cls-7" d="M374.11,982v83.07a20.58,20.58,0,0,0,41.17,0V982Z" transform="translate(0.06 -455.26)"/><path class="cls-8" d="M415.27,982v83.07a20.58,20.58,0,0,0,41.16,0V982Z" transform="translate(0.06 -455.26)"/><path class="cls-7" d="M456.44,982v83.07a20.58,20.58,0,0,0,41.17,0V982Z" transform="translate(0.06 -455.26)"/><path class="cls-8" d="M497.6,982v83.07a20.58,20.58,0,0,0,41.17,0V982Z" transform="translate(0.06 -455.26)"/><path class="cls-7" d="M538.77,982v83.07a20.58,20.58,0,0,0,41.16,0V982Z" transform="translate(0.06 -455.26)"/><path class="cls-8" d="M579.93,982v83.07a20.58,20.58,0,0,0,41.17,0V982Z" transform="translate(0.06 -455.26)"/><path class="cls-7" d="M621.1,982v83.07a20.58,20.58,0,0,0,41.16,0V982Z" transform="translate(0.06 -455.26)"/><path class="cls-8" d="M662.26,982v83.07a20.58,20.58,0,0,0,41.17,0V982Z" transform="translate(0.06 -455.26)"/><path class="cls-7" d="M703.43,982v83.07a20.58,20.58,0,0,0,41.16,0V982Z" transform="translate(0.06 -455.26)"/><path class="cls-8" d="M744.59,982v83.07a20.58,20.58,0,0,0,41.17,0V982Z" transform="translate(0.06 -455.26)"/><path class="cls-7" d="M785.76,982v83.07a20.58,20.58,0,0,0,41.16,0V982Z" transform="translate(0.06 -455.26)"/><polygon class="cls-9" points="393.98 546.64 393.98 575.14 393.98 587.67 646.12 587.67 646.12 546.64 393.98 546.64"/><rect class="cls-10" x="392.02" y="544.68" width="252.13" height="41.03"/><rect class="cls-1" x="397.87" y="549.02" width="240.42" height="32.34"/><path class="cls-7" d="M435.86,1027.93a7.2,7.2,0,0,1-2.12.64c-.38,0-.83-.08-.83-.56s1.26-2.12,1.66-2.66c.24-.32.43-.64.83-.75,1.13-.27,2.34-.29,3.46-.51l7.81-9.29c1-1.16,4.91-5.16,6.34-5.16.91,0,1.34,1,1.34,1.75,0,1.72-2.2,4.86-3.06,6.39.22,0,.48.08.48.38,0,.48-1.13,1.29-1.5,1.56s-1.83,1.4-2.34,1.4-.62-.4-.62-.81c0-2,2.31-4.94,3.6-6.39.21-.24.24-.51.05-.51-.35,0-1.5,1.07-4.48,4.48l-5.37,6.15c4.46.86,6.77,1.32,10.8,2.28l-1.42,1.42c-1.72,1.72-1.61,1.77-6.87.67a29.27,29.27,0,0,0-7.17-.75Z" transform="translate(0.06 -455.26)"/><path class="cls-7" d="M457.59,1026.62c-.51.4-2.23,1.8-2.85,1.8s-2.31-1.77-2.36-3.17c-.11-3.36,6.88-6.79,10-6.87a1.65,1.65,0,0,1,1.75,1.29c0,.32-.7.59-.94.67a1.08,1.08,0,0,1,.78,1.1c0,.86-2.34,2.74-2.34,4,0,.46.4.64.83.64,1.13,0,2.66-1.37,3.81-2.15l.21,1c-1.15,1.32-4.75,4.19-6.07,4.19a1.26,1.26,0,0,1-1.29-1.42,9,9,0,0,1,1-3l-.05-.05Zm-3.25-.7c0,.13.13.62.54.54s1.37,0,6.69-5.4l-.05-.05C455.12,1023,454.34,1024.6,454.34,1025.92Z" transform="translate(0.06 -455.26)"/><path class="cls-7" d="M473.65,1010c.43,0,1.37,0,1.37.62a7.16,7.16,0,0,1-1.26,3c-1.61,2-2.18,1.77-2.77,1.77a10.81,10.81,0,0,0,1.21-1.83c-.48-.16-1-.32-1-.94A3,3,0,0,1,473.65,1010Z" transform="translate(0.06 -455.26)"/><path class="cls-7" d="M483.15,1017.25c-1.26,2.55-1.48,3.54-4.43,3.36-.91,1.18-2.44,3.38-2.44,5,0,.59.19.94.81.94.86,0,1.83-.8,4.62-2.79l.13,1.18c-1.58,1.45-4.48,4.32-6.77,4.32a1.64,1.64,0,0,1-1.69-1.8,7.1,7.1,0,0,1,.7-2.69l-.05-.05-1.37,1.1-.3-1a15.5,15.5,0,0,0,4.08-4.3,9.72,9.72,0,0,0-2.55.11l.29-.48c1.45-2.36,1.67-2.79,4.54-2.9.81-1.1,1.4-2.36,3-2.36.35,0,.86.08.86.51s-.78,1.37-1,1.75Z" transform="translate(0.06 -455.26)"/><path class="cls-7" d="M486.05,1026.62c-.51.4-2.23,1.8-2.85,1.8s-2.31-1.77-2.36-3.17c-.11-3.36,6.87-6.79,10-6.87a1.65,1.65,0,0,1,1.75,1.29c0,.32-.7.59-.94.67a1.08,1.08,0,0,1,.78,1.1c0,.86-2.34,2.74-2.34,4,0,.46.4.64.83.64,1.13,0,2.66-1.37,3.81-2.15l.21,1c-1.15,1.32-4.75,4.19-6.07,4.19a1.26,1.26,0,0,1-1.29-1.42,9,9,0,0,1,1-3l-.05-.05Zm-3.25-.7c0,.13.13.62.54.54s1.37,0,6.69-5.4L490,1021C483.58,1023,482.8,1024.6,482.8,1025.92Z" transform="translate(0.06 -455.26)"/><path class="cls-7" d="M496.45,1025.06c1.32-1,6.2-5.34,7.68-5.34a1.41,1.41,0,0,1,1.29,1.29c0,.51-1.07,1.69-1.4,2.07-1.67,2-1.58,2.09-1.58,2.36a.56.56,0,0,0,.59.56c.89,0,2.85-1.45,3.63-2l.13,1.1c-1.24.94-4.48,3.57-6,3.57a1.3,1.3,0,0,1-1.24-1.42c0-1.69,1.85-3.73,2.82-5l-.05-.05c-4.59,3.14-5.93,6-6.79,6s-1.07-2.09-1.07-2.71a8.42,8.42,0,0,1,1.64-4.67c3.17-5.24,8.51-9.93,9.43-9.93.43,0,1.15.19,1.15.72,0,1.83-8.54,10.69-10.26,12.38Z" transform="translate(0.06 -455.26)"/><path class="cls-7" d="M512.56,1027.72c-.62,4.3-4.81,7-6.58,7.22a1.18,1.18,0,0,1-1.21-1.29c0-1.48,1.34-2.63,2.42-3.49l3.49-2.79c-.27-1.13-.67-1.26-1.72-1.56-.4-.11-1-.16-1-.67.13-.89,1.91-1.58,4.89-4.05l-.05-.05-3.28.56-3.06,3.33-.3-.89,1.88-2.28c-.4-.08-.73-.24-.73-.73,0-1,2.07-2.87,2.93-2.87.51,0,.67.51.67.94,2.12-.32,3-.78,3.57-.78s.86,1.83.86,2.12-.48.83-.81,1l-3.44,2.5a3.6,3.6,0,0,1,1.4,2.12l4.24-3.28.08,1.15Zm-5,3.71a3.19,3.19,0,0,0-1.45,2.17c1.83-.48,4.19-2.66,4.54-4.59Z" transform="translate(0.06 -455.26)"/><path class="cls-7" d="M520.88,1026.62c-.51.4-2.23,1.8-2.85,1.8s-2.31-1.77-2.36-3.17c-.11-3.36,6.87-6.79,10-6.87a1.65,1.65,0,0,1,1.75,1.29c0,.32-.7.59-.94.67a1.08,1.08,0,0,1,.78,1.1c0,.86-2.34,2.74-2.34,4,0,.46.4.64.83.64,1.13,0,2.66-1.37,3.81-2.15l.21,1c-1.15,1.32-4.75,4.19-6.07,4.19a1.26,1.26,0,0,1-1.29-1.42,9,9,0,0,1,1-3l-.05-.05Zm-3.25-.7c0,.13.13.62.54.54s1.37,0,6.69-5.4l-.05-.05C518.41,1023,517.63,1024.6,517.63,1025.92Z" transform="translate(0.06 -455.26)"/><path class="cls-7" d="M542.15,1023.13l.21,1.18c-1.42,1.26-4.19,4.57-6.15,4.57a1.57,1.57,0,0,1-1.5-1.77c0-1.61,1.45-3.38,2.31-4.62l-.05-.05a21.44,21.44,0,0,0-4.14,4.11c-.4.51-1.4,1.83-2.12,1.83-1.18,0-1.48-1.69-1.5-2.6-.08-1.85,1.61-4.57,3.17-5.88a1.33,1.33,0,0,1,1-.32c1.61.05,1.48.43,1.48.59,0,1-3.38,3.76-3.38,4.4a.3.3,0,0,0,.3.29c.19,0,.43-.24.54-.38,2.15-2.74,7.09-6,7.87-6,.11,0,.27.13.43.51a6.25,6.25,0,0,1,.4,1.45c0,1-3.3,3.09-3.3,4.94a.5.5,0,0,0,.48.48,5.62,5.62,0,0,0,2.31-1.34Z" transform="translate(0.06 -455.26)"/><path class="cls-7" d="M562.4,1018.19c.19-.19,1.07-1,1.37-1s.4.19.27.62l.05.05c2.61-2.26,4.3-4.67,4.3-5.56,0-.46-.3-.64-.72-.54s-3.54.24-9.56,7.28c-1.88,2.2-3.25,5.18-3.25,7.22s.91,3,2.85,3c3.38,0,9.29-4.4,11.84-6.66.08,1.37-.35,1.75-1.37,2.71-5.24,5-9.69,6.66-12.22,6.66-3,0-5.13-1.85-5.13-4.94,0-3.95,3.3-8.19,6.07-10.8,2.28-2.17,7.92-6.47,11.12-6.47a2.47,2.47,0,0,1,2.74,2.55c.19,3.63-6.74,10.5-10.12,11a1.29,1.29,0,0,1-1.5-1.29,3.23,3.23,0,0,1,1.29-2.09Z" transform="translate(0.06 -455.26)"/><path class="cls-7" d="M574.65,1026.62c-.51.4-2.23,1.8-2.85,1.8s-2.31-1.77-2.36-3.17c-.11-3.36,6.87-6.79,10-6.87a1.65,1.65,0,0,1,1.75,1.29c0,.32-.7.59-.94.67a1.08,1.08,0,0,1,.78,1.1c0,.86-2.34,2.74-2.34,4,0,.46.4.64.83.64,1.13,0,2.66-1.37,3.81-2.15l.22,1c-1.16,1.32-4.75,4.19-6.07,4.19a1.26,1.26,0,0,1-1.29-1.42,9,9,0,0,1,1-3l-.05-.05Zm-3.25-.7c0,.13.13.62.54.54s1.37,0,6.69-5.4l-.05-.05C572.18,1023,571.4,1024.6,571.4,1025.92Z" transform="translate(0.06 -455.26)"/><path class="cls-7" d="M586.68,1023.8a4.11,4.11,0,0,1,1.4,2.12l3.63-2.26.3,1a15.4,15.4,0,0,1-3.46,2.55,5.47,5.47,0,0,1,0,1.48c-.21,3.2-4,6.15-5.93,6.45-1.24.19-1.58-2.31-1.58-3.2,0-1.75,1.15-3.87,1.88-5.4a2.13,2.13,0,0,1-.78-1.53c0-1.07.72-1.37,1.5-1.8a8.15,8.15,0,0,0,3.28-3.65c.7-1.32,4.16-7.71,5.53-7.71.59,0,.64.75.64,1.18a8.65,8.65,0,0,1-1.4,3.76Zm-.11,3.92a4,4,0,0,1-1.93-.21,8.18,8.18,0,0,0-1.24,3,4,4,0,0,0,.54,2.39A5.77,5.77,0,0,0,586.57,1027.72Z" transform="translate(0.06 -455.26)"/><path class="cls-7" d="M601.64,1024.44c-1.64,1.91-4.59,4.43-7.25,4.43-2,0-2.87-1.75-2.93-3.52-.11-3.52,3.79-7.12,7.28-7.09.86,0,1.93.21,1.93,1.29,0,1.32-1.32,3.3-6.47,5l-.05.59c-.08,1,.81,1.37,1.67,1.37,1.91,0,4.16-2,5.59-3.09Zm-3.33-4.32c0-.19-.13-.35-.32-.29a5.9,5.9,0,0,0-3.62,3.41C596.72,1022.43,598.33,1020.58,598.31,1020.12Z" transform="translate(0.06 -455.26)"/><polygon class="cls-7" points="418.97 565.69 422.03 554.1 415.34 554.1 418.4 565.69 418.4 573.85 417.12 573.85 417.12 574.41 420.25 574.41 420.25 573.85 418.97 573.85 418.97 565.69"/><path class="cls-11" d="M621.51,1026.2a4.06,4.06,0,0,0,2.26-.28c1.66-.69,2.55-2.23,2-3.43a2.67,2.67,0,0,0-2.77-1.25c0-.16,0-.31-.06-.46h-15a7.63,7.63,0,0,0-.09,1.14c0,3.12,2,5.65,4.36,5.65h-5.71v.58h18v-.58h-5.84A3.84,3.84,0,0,0,621.51,1026.2Zm3.66-3.47c.46,1-.27,2.21-1.6,2.77a3.33,3.33,0,0,1-1.7.23,6.63,6.63,0,0,0,1.15-3.81c0-.07,0-.14,0-.2A2.13,2.13,0,0,1,625.17,1022.74Z" transform="translate(0.06 -455.26)"/><path class="cls-11" d="M614.58,1018.08s-1.38-2.94.36-4.34c.74-.6.23-2.2,0-3.44C615.57,1013.3,611.92,1013.54,614.58,1018.08Z" transform="translate(0.06 -455.26)"/><path class="cls-11" d="M615.29,1019.52a1.42,1.42,0,0,0-.35-2.12c-.55-.45-.17-1.66,0-2.6C614.48,1017.06,617.26,1016.09,615.29,1019.52Z" transform="translate(0.06 -455.26)"/><polygon class="cls-6" points="392.02 573.18 392.02 544.68 644.15 544.68 392.02 573.18"/><rect class="cls-12" x="250.68" y="640.68" width="102.91" height="201.81"/><rect class="cls-13" x="255.77" y="645.58" width="93.6" height="93.6"/><rect class="cls-13" x="255.77" y="744.58" width="93.6" height="93.6"/><path class="cls-7" d="M319.09,1165.93H285.93c-1.66,0-2.21-.73-2.39-1.17s-.31-1.34.87-2.52l15.16-15.16a4.18,4.18,0,0,1,5.89,0l15.16,15.16c1.17,1.17,1,2.08.86,2.52S320.74,1165.93,319.09,1165.93Zm-16.58-18.59a2.68,2.68,0,0,0-1.91.78l-15.16,15.16c-.49.49-.58.83-.55.91s.34.26,1,.26h33.16c.69,0,1-.18,1-.26s-.06-.42-.55-.91l-15.16-15.16A2.69,2.69,0,0,0,302.51,1147.35Z" transform="translate(0.06 -455.26)"/><rect class="cls-8" x="276.43" y="707" width="52.28" height="15.68"/><path class="cls-7" d="M294.82,1170.25a4.55,4.55,0,0,1-1,3.12,3.53,3.53,0,0,1-2.79,1.14,3.58,3.58,0,0,1-2.82-1.12,4.59,4.59,0,0,1-1-3.16,4.53,4.53,0,0,1,1-3.13A3.6,3.6,0,0,1,291,1166a3.52,3.52,0,0,1,2.78,1.13A4.55,4.55,0,0,1,294.82,1170.25Zm-6.59,0a3.93,3.93,0,0,0,.72,2.55,2.93,2.93,0,0,0,4.16,0,5,5,0,0,0,0-5.08,2.5,2.5,0,0,0-2.07-.86,2.55,2.55,0,0,0-2.09.87A3.89,3.89,0,0,0,288.23,1170.25Z" transform="translate(0.06 -455.26)"/><path class="cls-7" d="M301.91,1168.53a2.32,2.32,0,0,1-.86,1.93,3.89,3.89,0,0,1-2.45.68h-1v3.25h-1v-8.27h2.15Q301.91,1166.12,301.91,1168.53Zm-4.28,1.78h.87a3.22,3.22,0,0,0,1.85-.41,1.52,1.52,0,0,0,.57-1.32,1.43,1.43,0,0,0-.54-1.22,2.81,2.81,0,0,0-1.68-.4h-1.08Z" transform="translate(0.06 -455.26)"/><path class="cls-7" d="M308.26,1174.39h-4.61v-8.27h4.61v.85h-3.65v2.67H308v.85h-3.43v3h3.65Z" transform="translate(0.06 -455.26)"/><path class="cls-7" d="M316.55,1174.39h-1.1l-4.52-6.94h0q.09,1.22.09,2.24v4.7h-.89v-8.27h1.09l4.51,6.92h0c0-.1,0-.43-.05-1s0-.95,0-1.19v-4.75h.9Z" transform="translate(0.06 -455.26)"/><circle class="cls-8" cx="302.57" cy="693.43" r="1.82"/><polygon class="cls-14" points="250.68 721.24 250.68 640.68 353.59 640.68 250.68 721.24"/><rect class="cls-12" x="362.97" y="641.01" width="417.55" height="140.16"/><rect class="cls-13" x="367.93" y="646.84" width="404.44" height="128.4"/><path class="cls-15" d="M403.73,1188.11c-2.88.43-5.08,2.5-5.08,5v37.39h3v-38A5.75,5.75,0,0,1,403.73,1188.11Z" transform="translate(0.06 -455.26)"/><path class="cls-15" d="M631.73,1188.11a5.75,5.75,0,0,1,2.07,4.42v38h3V1193.1C636.81,1190.61,634.61,1188.54,631.73,1188.11Z" transform="translate(0.06 -455.26)"/><path class="cls-15" d="M538.87,1184.9a23.7,23.7,0,0,1,1.13,3.3c.55-.7,1.13-1.39,1.62-2.08,1.76-2.52,3.12-3.8,1.58-5-.68-.52-3,0-4.78.61,0,0,0,.07,0,.1v.12c0,.34,0,.68,0,1v.13c0,.12,0,.23,0,.35s0,.11,0,.17,0,.2.05.3l0,.16c0,.1,0,.19.07.29l0,.13C538.78,1184.65,538.82,1184.78,538.87,1184.9Z" transform="translate(0.06 -455.26)"/><path class="cls-15" d="M411.1,1188.11a5.75,5.75,0,0,1,2.07,4.42v38h3V1193.1C416.18,1190.61,414,1188.54,411.1,1188.11Z" transform="translate(0.06 -455.26)"/><path class="cls-15" d="M560.55,1199.3a2,2,0,0,0,1.32-2.46,1.71,1.71,0,0,0-1.78-.9c0,.06,0,.12,0,.18a6.22,6.22,0,0,1-.94,3.39A2.54,2.54,0,0,0,560.55,1199.3Z" transform="translate(0.06 -455.26)"/><path class="cls-15" d="M481.44,1195.94a1.71,1.71,0,0,0-1.78.9,2,2,0,0,0,1.32,2.46,2.54,2.54,0,0,0,1.4.21,6.23,6.23,0,0,1-.95-3.39C481.43,1196.05,481.44,1196,481.44,1195.94Z" transform="translate(0.06 -455.26)"/><path class="cls-15" d="M624.36,1188.11c-2.88.43-5.08,2.5-5.08,5v37.39h3v-38A5.75,5.75,0,0,1,624.36,1188.11Z" transform="translate(0.06 -455.26)"/><path class="cls-15" d="M580.11,1228.24l2.46-1.45v-25.12H561.31v-.51H556.5a3.08,3.08,0,0,0,2.36-1.23,3.15,3.15,0,0,0,1.86-.24,2.52,2.52,0,0,0,1.64-3.06,2.15,2.15,0,0,0-2.29-1.11c0-.14,0-.27,0-.41H547.63a7,7,0,0,0-.07,1c0,2.78,1.61,5,3.6,5h-4.71v.51h-7.73c2.41-3.57,2.37-8,1.74-11.44a21.4,21.4,0,0,1,2.07-3.4c1.64-2.36,3.19-4.59,1.07-6.22-1-.76-3.6-.08-5.17.44,0,0,0,0,0-.06v-.17l0-.29v-.17l0-.24c0-.56.11-1,.15-1.33h0a.45.45,0,1,0,0-.89h-.18l-.2-.16-.11-.07-.14-.08-.19-.09-.11,0-.26-.1-.07,0-.33-.1h0l-.39-.09h0c-.28-.06-.58-.1-.89-.14h0l-.27,0c0-.25-.39-.44-.83-.44s-.77.19-.83.43a5.68,5.68,0,0,0-3.26,1h-.18a.42.42,0,0,0-.42.56h-2.2l.15,0c1.12.16,4.14,1.09,2.09,6.42-.81,2.11-4,10.65.15,16.76h-4.84l-3.66-7.47v-6h-13.5v13.5H495.08v-.51h-4.71c2,0,3.6-2.25,3.6-5a7,7,0,0,0-.07-1H481.51c0,.13,0,.27,0,.41a2.15,2.15,0,0,0-2.29,1.11,2.52,2.52,0,0,0,1.64,3.06,3.16,3.16,0,0,0,1.87.24,3.08,3.08,0,0,0,2.35,1.23h-4.81v.51h-27v17.59h0v11.24H580.36Zm-20-32.12c0-.06,0-.12,0-.18a1.71,1.71,0,0,1,1.78.9,2,2,0,0,1-1.32,2.46,2.54,2.54,0,0,1-1.4.21A6.22,6.22,0,0,0,560.1,1196.12ZM481,1199.3a2,2,0,0,1-1.32-2.46,1.71,1.71,0,0,1,1.78-.9c0,.06,0,.12,0,.18a6.23,6.23,0,0,0,.95,3.39A2.54,2.54,0,0,1,481,1199.3Zm57.64-15.21,0-.16c0-.1,0-.2-.05-.3s0-.11,0-.17,0-.23,0-.35V1183c0-.33,0-.67,0-1v-.12s0-.07,0-.1c1.78-.6,4.1-1.14,4.78-.61,1.54,1.19.18,2.46-1.58,5-.48.69-1.07,1.38-1.62,2.08a23.7,23.7,0,0,0-1.13-3.3c-.05-.12-.1-.25-.14-.38l0-.13C538.67,1184.29,538.64,1184.19,538.62,1184.09Z" transform="translate(0.06 -455.26)"/><path class="cls-15" d="M553.13,1192.68s-1.14-2.62.3-3.86c.61-.53.19-2,0-3.06C553.95,1188.43,550.94,1188.65,553.13,1192.68Z" transform="translate(0.06 -455.26)"/><path class="cls-15" d="M553.94,1193.53c-.06.14-.13.28-.22.44A1.37,1.37,0,0,0,553.94,1193.53Z" transform="translate(0.06 -455.26)"/><path class="cls-15" d="M553.42,1189.77c-.13.84-.44,1.91,0,2.31a1.34,1.34,0,0,1,.51,1.45C555.1,1191,553.07,1191.68,553.42,1189.77Z" transform="translate(0.06 -455.26)"/><path class="cls-15" d="M488.4,1192.68c2.19-4-.82-4.25-.32-6.93-.18,1.11-.59,2.53,0,3.06C489.53,1190.07,488.4,1192.68,488.4,1192.68Z" transform="translate(0.06 -455.26)"/><path class="cls-15" d="M487.59,1193.53a1.39,1.39,0,0,0,.22.44C487.72,1193.81,487.65,1193.66,487.59,1193.53Z" transform="translate(0.06 -455.26)"/><path class="cls-15" d="M488.1,1192.08c.45-.4.14-1.48,0-2.31.35,1.91-1.69,1.24-.52,3.76A1.34,1.34,0,0,1,488.1,1192.08Z" transform="translate(0.06 -455.26)"/><path class="cls-15" d="M619.29,1193.1c0-2.49,2.19-4.56,5.08-5a5.75,5.75,0,0,0-2.07,4.42v38H633.8v-38a5.75,5.75,0,0,0-2.07-4.42c2.88.43,5.08,2.5,5.08,5v37.39h2.47V1193.1c0-3.92-3.87-7.1-8.63-7.1h-5.19c-4.76,0-8.63,3.19-8.63,7.1v37.39h2.47Z" transform="translate(0.06 -455.26)"/><path class="cls-15" d="M398.66,1193.1c0-2.49,2.19-4.56,5.08-5a5.75,5.75,0,0,0-2.07,4.42v38h11.51v-38a5.75,5.75,0,0,0-2.07-4.42c2.88.43,5.08,2.5,5.08,5v37.39h2.47V1193.1c0-3.92-3.87-7.1-8.63-7.1h-5.19c-4.76,0-8.63,3.19-8.63,7.1v37.39h2.46Z" transform="translate(0.06 -455.26)"/><polygon class="cls-16" points="772.37 646.84 524.51 646.84 367.93 700.18 367.93 775.24 398.14 775.24 772.37 647.74 772.37 646.84"/><polygon class="cls-16" points="457.86 775.24 772.37 668.08 772.37 657.41 426.54 775.24 457.86 775.24"/><polygon class="cls-16" points="709.19 775.24 772.37 753.71 772.37 743.04 677.88 775.24 709.19 775.24"/><path class="cls-17" d="M523.59,1297.87h-2.3c-3.54-5.22-10.81-9.09-19.55-10.12v-12.32a7.27,7.27,0,0,0-1.08-3.9,1.28,1.28,0,0,0,1.08-1.41,1.67,1.67,0,0,1,0-2.22,1.4,1.4,0,0,0-.78-1.35,7.43,7.43,0,0,0,.78-3.37v-37c0-3.38-2.11-6.12-4.71-6.12s-4.71,2.74-4.71,6.12v37a7.46,7.46,0,0,0,.78,3.37,1.4,1.4,0,0,0-.78,1.35,1.66,1.66,0,0,1,0,2.22,1.28,1.28,0,0,0,1.08,1.41,7.29,7.29,0,0,0-1.08,3.9v12.34c-8.68,1.05-15.9,4.91-19.42,10.1h-2.43a1.24,1.24,0,1,0,0,2.47h6.92a1.24,1.24,0,0,0,0-2.47c4-4.09,11.33-6.84,19.69-6.84s15.68,2.75,19.69,6.84h-.12a1.24,1.24,0,0,0,0,2.47h6.93a1.24,1.24,0,0,0,0-2.47Z" transform="translate(0.06 -455.26)"/><polygon class="cls-18" points="560.15 782.47 537.36 787.4 537.36 767.76 558.51 767.76 560.15 782.47"/><polygon class="cls-19" points="533.3 790.5 432.41 779.03 432.41 748.57 561.79 748.57 561.79 773.69 533.3 790.5"/><g class="cls-20"><polygon class="cls-21" points="432.41 748.57 432.41 750.05 433.32 748.57 432.41 748.57"/><polygon class="cls-21" points="433.32 748.57 432.41 750.05 432.41 759.17 438.88 748.57 433.32 748.57"/><polygon class="cls-21" points="450 748.57 444.44 748.57 432.41 768.28 432.41 773.11 434.31 774.27 450 748.57"/><polygon class="cls-21" points="442.42 779.22 461.13 748.57 455.56 748.57 438.36 776.75 442.42 779.22"/><polygon class="cls-21" points="466.69 748.57 447.08 780.7 452.28 781.29 472.25 748.57 466.69 748.57"/><polygon class="cls-21" points="477.81 748.57 457.48 781.88 462.68 782.47 483.38 748.57 477.81 748.57"/><polygon class="cls-21" points="488.94 748.57 467.88 783.06 473.08 783.65 494.5 748.57 488.94 748.57"/><polygon class="cls-21" points="500.06 748.57 478.29 784.25 483.49 784.84 505.63 748.57 500.06 748.57"/><polygon class="cls-21" points="511.19 748.57 488.69 785.43 493.89 786.02 516.75 748.57 511.19 748.57"/><polygon class="cls-21" points="522.31 748.57 499.09 786.61 504.29 787.21 527.88 748.57 522.31 748.57"/><polygon class="cls-21" points="533.44 748.57 509.49 787.8 514.69 788.39 539 748.57 533.44 748.57"/><polygon class="cls-21" points="544.56 748.57 519.89 788.98 525.1 789.57 550.13 748.57 544.56 748.57"/><polygon class="cls-21" points="555.69 748.57 530.3 790.16 533.3 790.5 536.98 788.33 561.25 748.57 555.69 748.57"/><polygon class="cls-21" points="561.79 756.8 545.67 783.2 554.37 778.07 561.79 765.91 561.79 756.8"/></g><g class="cls-22"><polygon class="cls-23" points="432.41 779.03 435.92 779.43 432.41 777.28 432.41 779.03"/><polygon class="cls-23" points="561.79 748.57 558.51 748.57 561.79 750.56 561.79 748.57"/><polygon class="cls-23" points="558.51 748.57 549.4 748.57 561.79 756.13 561.79 750.56 558.51 748.57"/><polygon class="cls-23" points="531.17 748.57 561.79 767.25 561.79 761.69 540.28 748.57 531.17 748.57"/><polygon class="cls-23" points="512.94 748.57 557.88 776 561.79 773.69 561.79 772.81 522.06 748.57 512.94 748.57"/><polygon class="cls-23" points="494.71 748.57 548.62 781.46 553.25 778.73 503.83 748.57 494.71 748.57"/><polygon class="cls-23" points="476.49 748.57 539.35 786.93 543.99 784.2 485.6 748.57 476.49 748.57"/><polygon class="cls-23" points="458.26 748.57 525.53 789.62 533.3 790.5 534.72 789.67 467.37 748.57 458.26 748.57"/><polygon class="cls-23" points="440.03 748.57 503.12 787.07 514.33 788.35 449.14 748.57 440.03 748.57"/><polygon class="cls-23" points="432.41 755.03 480.72 784.52 491.93 785.8 432.41 749.47 432.41 755.03"/><polygon class="cls-23" points="432.41 766.16 458.32 781.98 469.52 783.25 432.41 760.6 432.41 766.16"/><polygon class="cls-23" points="432.41 777.28 435.92 779.43 447.12 780.7 432.41 771.72 432.41 777.28"/></g><polygon class="cls-24" points="432.41 770.09 432.41 779.03 533.3 790.5 561.79 773.69 561.79 764.75 533.3 781.57 432.41 770.09"/><polygon class="cls-24" points="432.41 766.15 432.41 768.11 533.3 779.58 561.79 762.76 561.79 760.81 533.3 777.63 432.41 766.15"/><polygon class="cls-17" points="504.53 748.57 499.94 748.57 499.94 739.18 504.53 748.57"/><rect class="cls-7" x="487.38" y="735.06" width="13.5" height="13.5"/><rect class="cls-1" x="488.3" y="735.99" width="11.65" height="11.65"/><path class="cls-7" d="M491.82,1193.78h2a3.83,3.83,0,0,1,2,.41,1.43,1.43,0,0,1,.63,1.29,1.57,1.57,0,0,1-.31,1,1.37,1.37,0,0,1-.88.5v0a1.76,1.76,0,0,1,1.05.53,1.62,1.62,0,0,1,.34,1.08,1.74,1.74,0,0,1-.64,1.43,2.75,2.75,0,0,1-1.78.52h-2.46Zm1.11,2.81H494a1.83,1.83,0,0,0,1-.22.85.85,0,0,0,.32-.75.75.75,0,0,0-.35-.69,2.16,2.16,0,0,0-1.1-.21h-1Zm0,.9v2.15h1.18a1.74,1.74,0,0,0,1.05-.27,1,1,0,0,0,.36-.84.9.9,0,0,0-.36-.79,1.92,1.92,0,0,0-1.1-.26Z" transform="translate(0.06 -455.26)"/><polygon class="cls-25" points="487.38 735.06 500.88 735.06 500.88 748.57 487.38 735.06"/><path class="cls-1" d="M813.21,1204.12c-.91-2.07-.18-6.46-.18-6.46H801.85s5,0,2.48,6.46c-.81,2.11-4,10.65.15,16.77h8.56C817.19,1214.77,814.12,1206.19,813.21,1204.12Z" transform="translate(0.06 -455.26)"/><path class="cls-1" d="M813,1197.11h-.18a5.4,5.4,0,0,0-3-.94c0-.25-.39-.44-.83-.44s-.76.19-.82.42a5.66,5.66,0,0,0-3.26,1h-.18a.45.45,0,0,0,0,.89h.06c.47.65,2.12,1.12,4.09,1.12s3.62-.48,4.1-1.12H813a.45.45,0,0,0,0-.89Z" transform="translate(0.06 -455.26)"/><path class="cls-1" d="M813,1213.45c-1.9-3.13,1.17-5.59,2.93-8.11s3.12-3.8,1.58-5c-.81-.62-3.94.26-5.72,1l-.24-.62c.51-.2,5-1.92,6.37-.86,2.12,1.63.57,3.86-1.07,6.21s-3.69,5.31-2,8.07Z" transform="translate(0.06 -455.26)"/><g class="cls-6"><path d="M813.21,1204.12c-.76-1.73-.38-5.07-.23-6.12h0a.45.45,0,0,0,0-.89h-.18a5.08,5.08,0,0,0-2.75-.92,15,15,0,0,0,.37,5.59c.91,2.36,4,12.14-.15,19.1h2.75C817.19,1214.77,814.12,1206.19,813.21,1204.12Z" transform="translate(0.06 -455.26)"/><path d="M802.26,1197.7a.11.11,0,0,1,0,0h-.4A3.47,3.47,0,0,1,802.26,1197.7Z" transform="translate(0.06 -455.26)"/></g><path class="cls-1" d="M833.19,1219.14a3.15,3.15,0,0,0,1.87-.25,2.51,2.51,0,0,0,1.64-3.05,2.14,2.14,0,0,0-2.29-1.11c0-.13,0-.27,0-.4H822a6.48,6.48,0,0,0-.07,1c0,2.78,1.61,5,3.6,5h-4.71v.51h14.86v-.51h-4.82A3.07,3.07,0,0,0,833.19,1219.14Zm3-3.09a2,2,0,0,1-1.32,2.46,2.53,2.53,0,0,1-1.4.21,6.23,6.23,0,0,0,.94-3.39c0-.06,0-.12,0-.18A1.72,1.72,0,0,1,836.21,1216.06Z" transform="translate(0.06 -455.26)"/><path class="cls-1" d="M827.47,1211.91s-1.14-2.62.3-3.86c.61-.53.19-2,0-3.06C828.29,1207.65,825.28,1207.87,827.47,1211.91Z" transform="translate(0.06 -455.26)"/><path class="cls-1" d="M828.06,1213.19a1.33,1.33,0,0,0-.29-1.89c-.45-.4-.14-1.48,0-2.31C827.38,1211,829.68,1210.14,828.06,1213.19Z" transform="translate(0.06 -455.26)"/><path class="cls-6" d="M833.19,1219.14a3.15,3.15,0,0,0,1.87-.25,2.51,2.51,0,0,0,1.64-3.05,2.14,2.14,0,0,0-2.29-1.11c0-.13,0-.27,0-.4h-4.49c.11,1.29.3,5.3-1.33,6.56h7.1v-.51h-4.82A3.07,3.07,0,0,0,833.19,1219.14Zm1.25-3.8c0-.06,0-.12,0-.18a1.72,1.72,0,0,1,1.79.9,2,2,0,0,1-1.32,2.46,2.53,2.53,0,0,1-1.4.21A6.23,6.23,0,0,0,834.43,1215.34Z" transform="translate(0.06 -455.26)"/><path class="cls-1" d="M759.37,1220.38h-4.81v.51h14.86v-.51H764.7c2,0,3.6-2.25,3.6-5a6.9,6.9,0,0,0-.07-1H755.84c0,.13,0,.27,0,.4a2.15,2.15,0,0,0-2.29,1.11,2.52,2.52,0,0,0,1.64,3.05,3.15,3.15,0,0,0,1.86.25A3.09,3.09,0,0,0,759.37,1220.38Zm-3.59-5.21c0,.06,0,.12,0,.18a6.23,6.23,0,0,0,.95,3.39,2.52,2.52,0,0,1-1.4-.21,2,2,0,0,1-1.32-2.46A1.71,1.71,0,0,1,755.78,1215.16Z" transform="translate(0.06 -455.26)"/><path class="cls-1" d="M762.74,1211.91s1.14-2.62-.3-3.86c-.61-.53-.19-2,0-3.06C761.92,1207.65,764.93,1207.87,762.74,1211.91Z" transform="translate(0.06 -455.26)"/><path class="cls-1" d="M762.15,1213.19a1.33,1.33,0,0,1,.29-1.89c.45-.4.14-1.48,0-2.31C762.82,1211,760.53,1210.14,762.15,1213.19Z" transform="translate(0.06 -455.26)"/><path class="cls-6" d="M769.42,1220.38H764.7c2,0,3.6-2.25,3.6-5a6.9,6.9,0,0,0-.07-1h-4.54a8.75,8.75,0,0,1-2.4,6.56h8.12Z" transform="translate(0.06 -455.26)"/><path class="cls-17" d="M411,1297.32v-45a4.91,4.91,0,0,0-4.9-4.9h-25.4a4.91,4.91,0,0,0-4.9,4.9v45h-2v-45a6.87,6.87,0,0,1,6.86-6.86h25.4a6.87,6.87,0,0,1,6.86,6.86v45Z" transform="translate(0.06 -455.26)"/><path class="cls-17" d="M420.62,1297.32v-45a4.91,4.91,0,0,0-4.9-4.9h-25.4a4.91,4.91,0,0,0-4.9,4.9v45h-2v-45a6.87,6.87,0,0,1,6.86-6.86h25.4a6.87,6.87,0,0,1,6.86,6.86v45Z" transform="translate(0.06 -455.26)"/><path class="cls-17" d="M395.34,1240.8v-45.54c0-2.8-2.76-5.08-6.16-5.08H384c-3.4,0-6.17,2.28-6.17,5.08v45.54h-2.47v-45.54c0-3.92,3.87-7.11,8.63-7.11h5.19c4.76,0,8.63,3.19,8.63,7.11v45.54Z" transform="translate(0.06 -455.26)"/><rect class="cls-17" x="413.01" y="829.13" width="7.68" height="1.83"/><rect class="cls-17" x="375.85" y="829.13" width="7.68" height="1.83"/><path class="cls-17" d="M390.37,1240.15v-45.46a3.8,3.8,0,1,0-7.59,0v45.46h-2v-45.46a5.76,5.76,0,0,1,11.51,0v45.46Z" transform="translate(0.06 -455.26)"/><path class="cls-7" d="M381.8,1240.15v-45.46a4.77,4.77,0,0,1,9.55,0v45.46Z" transform="translate(0.06 -455.26)"/><path class="cls-26" d="M373,1242.4a3,3,0,0,0,3,3h43.49a3,3,0,0,0,3-3h0a3,3,0,0,0-3-3H376.06a3,3,0,0,0-3,3Z" transform="translate(0.06 -455.26)"/><path class="cls-17" d="M582.8,1297.32v-45a4.91,4.91,0,0,1,4.9-4.9h25.4a4.91,4.91,0,0,1,4.9,4.9v45h2v-45a6.87,6.87,0,0,0-6.86-6.86H587.7a6.87,6.87,0,0,0-6.86,6.86v45Z" transform="translate(0.06 -455.26)"/><path class="cls-17" d="M573.16,1297.32v-45a4.91,4.91,0,0,1,4.9-4.9h25.4a4.91,4.91,0,0,1,4.9,4.9v45h2v-45a6.87,6.87,0,0,0-6.86-6.86h-25.4a6.87,6.87,0,0,0-6.86,6.86v45Z" transform="translate(0.06 -455.26)"/><path class="cls-17" d="M598.45,1240.8v-45.54c0-2.8,2.77-5.08,6.16-5.08h5.19c3.4,0,6.17,2.28,6.17,5.08v45.54h2.47v-45.54c0-3.92-3.87-7.11-8.63-7.11h-5.19c-4.76,0-8.63,3.19-8.63,7.11v45.54Z" transform="translate(0.06 -455.26)"/><rect class="cls-17" x="573.23" y="829.13" width="7.68" height="1.83"/><rect class="cls-17" x="610.39" y="829.13" width="7.68" height="1.83"/><path class="cls-17" d="M603.41,1240.15v-45.46a3.8,3.8,0,1,1,7.59,0v45.46h2v-45.46a5.76,5.76,0,0,0-11.51,0v45.46Z" transform="translate(0.06 -455.26)"/><path class="cls-7" d="M612,1240.15v-45.46a4.77,4.77,0,1,0-9.55,0v45.46Z" transform="translate(0.06 -455.26)"/><path class="cls-26" d="M620.76,1242.4a3,3,0,0,1-3,3H574.24a3,3,0,0,1-3-3h0a3,3,0,0,1,3-3h43.49a3,3,0,0,1,3,3Z" transform="translate(0.06 -455.26)"/><path class="cls-17" d="M807.08,1297.87h-2.3c-3.54-5.22-10.81-9.09-19.55-10.12v-12.32a7.28,7.28,0,0,0-1.08-3.9,1.28,1.28,0,0,0,1.08-1.41,1.67,1.67,0,0,1,0-2.22,1.4,1.4,0,0,0-.78-1.35,7.44,7.44,0,0,0,.78-3.37v-37c0-3.38-2.11-6.12-4.71-6.12s-4.71,2.74-4.71,6.12v37a7.46,7.46,0,0,0,.78,3.37,1.4,1.4,0,0,0-.78,1.35,1.66,1.66,0,0,1,0,2.22,1.28,1.28,0,0,0,1.08,1.41,7.29,7.29,0,0,0-1.08,3.9v12.34c-8.68,1.05-15.9,4.91-19.42,10.1H754a1.24,1.24,0,1,0,0,2.47h6.92a1.24,1.24,0,0,0,0-2.47c4-4.09,11.33-6.84,19.69-6.84s15.68,2.75,19.69,6.84h-.12a1.24,1.24,0,0,0,0,2.47h6.93a1.24,1.24,0,1,0,0-2.47Z" transform="translate(0.06 -455.26)"/><polygon class="cls-18" points="843.63 782.47 820.85 787.4 820.85 767.76 842 767.76 843.63 782.47"/><polygon class="cls-19" points="816.79 790.5 715.89 779.03 715.89 748.57 845.27 748.57 845.27 773.69 816.79 790.5"/><g class="cls-20"><polygon class="cls-21" points="715.89 748.57 715.89 750.05 716.8 748.57 715.89 748.57"/><polygon class="cls-21" points="716.8 748.57 715.89 750.05 715.89 759.17 722.37 748.57 716.8 748.57"/><polygon class="cls-21" points="733.49 748.57 727.93 748.57 715.89 768.28 715.89 773.11 717.8 774.27 733.49 748.57"/><polygon class="cls-21" points="725.9 779.22 744.62 748.57 739.05 748.57 721.85 776.75 725.9 779.22"/><polygon class="cls-21" points="750.18 748.57 730.57 780.7 735.77 781.29 755.74 748.57 750.18 748.57"/><polygon class="cls-21" points="761.3 748.57 740.97 781.88 746.17 782.47 766.86 748.57 761.3 748.57"/><polygon class="cls-21" points="772.43 748.57 751.37 783.06 756.57 783.65 777.99 748.57 772.43 748.57"/><polygon class="cls-21" points="783.55 748.57 761.77 784.25 766.97 784.84 789.11 748.57 783.55 748.57"/><polygon class="cls-21" points="794.68 748.57 772.17 785.43 777.38 786.02 800.24 748.57 794.68 748.57"/><polygon class="cls-21" points="805.8 748.57 782.58 786.61 787.78 787.21 811.36 748.57 805.8 748.57"/><polygon class="cls-21" points="816.92 748.57 792.98 787.8 798.18 788.39 822.49 748.57 816.92 748.57"/><polygon class="cls-21" points="828.05 748.57 803.38 788.98 808.59 789.57 833.61 748.57 828.05 748.57"/><polygon class="cls-21" points="839.17 748.57 813.79 790.16 816.79 790.5 820.47 788.33 844.74 748.57 839.17 748.57"/><polygon class="cls-21" points="845.27 756.8 829.16 783.2 837.86 778.07 845.27 765.91 845.27 756.8"/></g><g class="cls-22"><polygon class="cls-23" points="715.89 779.03 719.41 779.43 715.89 777.28 715.89 779.03"/><polygon class="cls-23" points="845.27 748.57 842 748.57 845.27 750.56 845.27 748.57"/><polygon class="cls-23" points="842 748.57 832.88 748.57 845.27 756.13 845.27 750.56 842 748.57"/><polygon class="cls-23" points="814.65 748.57 845.27 767.25 845.27 761.69 823.77 748.57 814.65 748.57"/><polygon class="cls-23" points="796.43 748.57 841.37 776 845.27 773.69 845.27 772.81 805.54 748.57 796.43 748.57"/><polygon class="cls-23" points="778.2 748.57 832.1 781.46 836.74 778.73 787.31 748.57 778.2 748.57"/><polygon class="cls-23" points="759.97 748.57 822.84 786.93 827.47 784.2 769.09 748.57 759.97 748.57"/><polygon class="cls-23" points="741.75 748.57 809.01 789.62 816.79 790.5 818.21 789.67 750.86 748.57 741.75 748.57"/><polygon class="cls-23" points="723.52 748.57 786.61 787.07 797.82 788.35 732.63 748.57 723.52 748.57"/><polygon class="cls-23" points="715.89 755.03 764.21 784.52 775.41 785.8 715.89 749.47 715.89 755.03"/><polygon class="cls-23" points="715.89 766.16 741.81 781.98 753.01 783.25 715.89 760.6 715.89 766.16"/><polygon class="cls-23" points="715.89 777.28 719.41 779.43 730.61 780.7 715.89 771.72 715.89 777.28"/></g><polygon class="cls-24" points="715.89 770.09 715.89 779.03 816.79 790.5 845.27 773.69 845.27 764.75 816.79 781.57 715.89 770.09"/><polygon class="cls-24" points="715.89 766.15 715.89 768.11 816.79 779.58 845.27 762.76 845.27 760.81 816.79 777.63 715.89 766.15"/><polygon class="cls-17" points="788.02 748.57 783.43 748.57 783.43 739.18 788.02 748.57"/><rect class="cls-7" x="770.87" y="735.06" width="13.5" height="13.5"/><rect class="cls-1" x="771.79" y="735.99" width="11.65" height="11.65"/><path class="cls-7" d="M780,1200.57h-4.86v-.77l3.43-5.07h-3.33v-1h4.68v.78l-3.44,5.06H780Z" transform="translate(0.06 -455.26)"/><polygon class="cls-25" points="770.87 735.06 784.37 735.06 784.37 748.57 770.87 735.06"/><path class="cls-17" d="M694.47,1297.32v-45a4.91,4.91,0,0,0-4.9-4.9h-25.4a4.91,4.91,0,0,0-4.9,4.9v45h-2v-45a6.87,6.87,0,0,1,6.86-6.86h25.4a6.87,6.87,0,0,1,6.86,6.86v45Z" transform="translate(0.06 -455.26)"/><path class="cls-17" d="M704.11,1297.32v-45a4.91,4.91,0,0,0-4.9-4.9h-25.4a4.91,4.91,0,0,0-4.9,4.9v45h-2v-45a6.87,6.87,0,0,1,6.86-6.86h25.4a6.87,6.87,0,0,1,6.86,6.86v45Z" transform="translate(0.06 -455.26)"/><path class="cls-17" d="M678.82,1240.8v-45.54c0-2.8-2.76-5.08-6.16-5.08h-5.19c-3.4,0-6.17,2.28-6.17,5.08v45.54h-2.47v-45.54c0-3.92,3.87-7.11,8.63-7.11h5.19c4.76,0,8.63,3.19,8.63,7.11v45.54Z" transform="translate(0.06 -455.26)"/><rect class="cls-17" x="696.5" y="829.13" width="7.68" height="1.83"/><rect class="cls-17" x="659.34" y="829.13" width="7.68" height="1.83"/><path class="cls-17" d="M673.86,1240.15v-45.46a3.8,3.8,0,1,0-7.59,0v45.46h-2v-45.46a5.76,5.76,0,0,1,11.51,0v45.46Z" transform="translate(0.06 -455.26)"/><path class="cls-7" d="M665.29,1240.15v-45.46a4.77,4.77,0,0,1,9.55,0v45.46Z" transform="translate(0.06 -455.26)"/><path class="cls-26" d="M656.51,1242.4a3,3,0,0,0,3,3H703a3,3,0,0,0,3-3h0a3,3,0,0,0-3-3H659.55a3,3,0,0,0-3,3Z" transform="translate(0.06 -455.26)"/><path class="cls-17" d="M866.29,1297.32v-45a4.91,4.91,0,0,1,4.9-4.9h25.4a4.91,4.91,0,0,1,4.9,4.9v45h2v-45a6.87,6.87,0,0,0-6.86-6.86h-25.4a6.87,6.87,0,0,0-6.86,6.86v45Z" transform="translate(0.06 -455.26)"/><path class="cls-17" d="M856.65,1297.32v-45a4.91,4.91,0,0,1,4.9-4.9H887a4.91,4.91,0,0,1,4.9,4.9v45h2v-45a6.87,6.87,0,0,0-6.86-6.86h-25.4a6.87,6.87,0,0,0-6.86,6.86v45Z" transform="translate(0.06 -455.26)"/><path class="cls-17" d="M881.94,1240.8v-45.54c0-2.8,2.77-5.08,6.16-5.08h5.19c3.4,0,6.17,2.28,6.17,5.08v45.54h2.47v-45.54c0-3.92-3.87-7.11-8.63-7.11H888.1c-4.76,0-8.63,3.19-8.63,7.11v45.54Z" transform="translate(0.06 -455.26)"/><rect class="cls-17" x="856.72" y="829.13" width="7.68" height="1.83"/><rect class="cls-17" x="893.88" y="829.13" width="7.68" height="1.83"/><path class="cls-17" d="M886.9,1240.15v-45.46a3.79,3.79,0,1,1,7.59,0v45.46h2v-45.46a5.76,5.76,0,0,0-11.51,0v45.46Z" transform="translate(0.06 -455.26)"/><path class="cls-7" d="M895.47,1240.15v-45.46a4.77,4.77,0,0,0-9.55,0v45.46Z" transform="translate(0.06 -455.26)"/><path class="cls-26" d="M904.25,1242.4a3,3,0,0,1-3,3H857.72a3,3,0,0,1-3-3h0a3,3,0,0,1,3-3h43.49a3,3,0,0,1,3,3Z" transform="translate(0.06 -455.26)"/></g><g id="Green_Shop" data-name="Green Shop"><rect class="cls-27" x="1338.42" y="576.87" width="422.95" height="266.14"/><path class="cls-6" d="M1761.31,1023.87H1339V1073h.74c9.31,0,16.86-4.37,16.86-9.75,0,5.39,7.55,9.75,16.86,9.75s16.86-4.37,16.86-9.75c0,5.39,7.55,9.75,16.86,9.75s16.86-4.37,16.86-9.75c0,5.39,7.55,9.75,16.86,9.75s16.86-4.37,16.86-9.75c0,5.39,7.55,9.75,16.87,9.75s16.86-4.37,16.86-9.75c0,5.39,7.55,9.75,16.87,9.75s16.86-4.37,16.86-9.75c0,5.39,7.55,9.75,16.87,9.75s16.86-4.37,16.86-9.75c0,5.39,7.55,9.75,16.87,9.75s16.86-4.37,16.86-9.75c0,5.39,7.55,9.75,16.87,9.75s16.86-4.37,16.86-9.75c0,5.39,7.55,9.75,16.86,9.75s16.86-4.37,16.86-9.75c0,5.39,7.55,9.75,16.87,9.75s16.86-4.37,16.86-9.75c0,5.39,7.55,9.75,16.87,9.75s16.87-4.37,16.87-9.75c0,5.39,7.55,9.75,16.86,9.75s16.87-4.37,16.87-9.75Z" transform="translate(0.06 -455.26)"/><path class="cls-28" d="M1322.84,982v67.5a16.86,16.86,0,0,0,33.73,0V982Z" transform="translate(0.06 -455.26)"/><path class="cls-8" d="M1356.56,982v67.5a16.86,16.86,0,0,0,33.73,0V982Z" transform="translate(0.06 -455.26)"/><path class="cls-28" d="M1390.29,982v67.5a16.86,16.86,0,0,0,33.73,0V982Z" transform="translate(0.06 -455.26)"/><path class="cls-8" d="M1424,982v67.5a16.86,16.86,0,0,0,33.73,0V982Z" transform="translate(0.06 -455.26)"/><path class="cls-28" d="M1457.75,982v67.5a16.86,16.86,0,0,0,33.73,0V982Z" transform="translate(0.06 -455.26)"/><path class="cls-8" d="M1491.48,982v67.5a16.86,16.86,0,0,0,33.73,0V982Z" transform="translate(0.06 -455.26)"/><path class="cls-28" d="M1525.21,982v67.5a16.87,16.87,0,0,0,33.73,0V982Z" transform="translate(0.06 -455.26)"/><path class="cls-8" d="M1558.94,982v67.5a16.86,16.86,0,0,0,33.73,0V982Z" transform="translate(0.06 -455.26)"/><path class="cls-28" d="M1592.66,982v67.5a16.87,16.87,0,0,0,33.73,0V982Z" transform="translate(0.06 -455.26)"/><path class="cls-8" d="M1626.39,982v67.5a16.86,16.86,0,0,0,33.73,0V982Z" transform="translate(0.06 -455.26)"/><path class="cls-28" d="M1660.12,982v67.5a16.86,16.86,0,0,0,33.73,0V982Z" transform="translate(0.06 -455.26)"/><path class="cls-8" d="M1693.85,982v67.5a16.87,16.87,0,0,0,33.73,0V982Z" transform="translate(0.06 -455.26)"/><path class="cls-28" d="M1727.58,982v67.5a16.86,16.86,0,0,0,33.73,0V982Z" transform="translate(0.06 -455.26)"/><rect class="cls-28" x="1373.49" y="640.68" width="84.32" height="201.81"/><rect class="cls-13" x="1377.66" y="645.58" width="76.7" height="93.6"/><rect class="cls-13" x="1377.66" y="744.58" width="76.7" height="93.6"/><polygon class="cls-14" points="1373.49 721.24 1373.49 640.68 1457.81 640.68 1373.49 721.24"/><rect class="cls-28" x="1477.54" y="641.01" width="230.39" height="140.16"/><rect class="cls-13" x="1480.27" y="646.84" width="223.16" height="128.4"/><path class="cls-28" d="M1594.18,1209.34a47.75,47.75,0,1,1,47.75-47.75A47.8,47.8,0,0,1,1594.18,1209.34Zm0-94.49a46.75,46.75,0,1,0,46.75,46.75A46.8,46.8,0,0,0,1594.18,1114.85Z" transform="translate(0.06 -455.26)"/><circle class="cls-28" cx="1594.25" cy="706.34" r="41.75"/><polygon class="cls-16" points="1529.89 775.24 1703.43 668.08 1703.43 657.41 1512.61 775.24 1529.89 775.24"/><polygon class="cls-16" points="1668.57 775.24 1703.43 753.71 1703.43 743.04 1651.29 775.24 1668.57 775.24"/><path class="cls-29" d="M1580.63,1168.42l-3.52,7.66a37.74,37.74,0,0,1-1.4,8.56q-1,3.1-2,3.57-.53.26-.85-.4a7.19,7.19,0,0,1-.29-3.87,14.45,14.45,0,0,1,.44-2.09,19.42,19.42,0,0,1,.63-1.89q.33-.83.91-2.1l.79-1.75q0-4.46-.13-6.74-.8,2.57-1.49,4.3a15.6,15.6,0,0,1-1.42,2.84,4.17,4.17,0,0,1-1.57,1.51q-.9.44-2.36-.63a6.94,6.94,0,0,1-2.19-2.59,4.24,4.24,0,0,1-.39-1.64,8.12,8.12,0,0,1,.22-2.16,14.7,14.7,0,0,1,.9-2.67,21.07,21.07,0,0,1,1.65-3q1.9-3,3.42-3.78,1.13-.55,1.53.28.56,1.15-1.37,3.43a17.34,17.34,0,0,0-2.13,3.17,12.42,12.42,0,0,0-1.27,3.44,4.18,4.18,0,0,0,.15,2.62,1.3,1.3,0,0,0,.6.65.82.82,0,0,0,.74,0,2.81,2.81,0,0,0,1.14-1.25,30.09,30.09,0,0,0,1.38-3.13,23.15,23.15,0,0,0,.86-3,32.69,32.69,0,0,1,.86-3.17,2.35,2.35,0,0,1,1-1.44.87.87,0,0,1,.68-.06,1,1,0,0,1,.53.54,7.58,7.58,0,0,1,.5,2.67q.11,1.86.13,6.18l2.76-5.18Z" transform="translate(0.06 -455.26)"/><path class="cls-29" d="M1579.94,1169l-.56-1.15a19.27,19.27,0,0,0,.51-2.63,2.17,2.17,0,0,1-1.05-.08,1.35,1.35,0,0,1-.67-.72,4,4,0,0,1-.25-1.86,10.2,10.2,0,0,1,.42-2.45,4.58,4.58,0,0,1,.88-1.78,1.21,1.21,0,0,1,.42-.35.34.34,0,0,1,.52.16,3.75,3.75,0,0,1,0,1.48,46.84,46.84,0,0,1,4.31-2.79,1.42,1.42,0,0,1,.55-.18,1.37,1.37,0,0,1,.85.5,4.09,4.09,0,0,1,.76,1.07,1.52,1.52,0,0,1,.06,1,17.82,17.82,0,0,1-.51,1.81,11.64,11.64,0,0,0-.51,3,4.8,4.8,0,0,0,.23,2.09q.4.83,1.43.33t2.68-4l.57,1.18q-.72,2.25-1.25,3.59a14.43,14.43,0,0,1-1.08,2.26,3.08,3.08,0,0,1-1.19,1.22,1.64,1.64,0,0,1-1.57-.08,3.7,3.7,0,0,1-1.45-1.73,5.25,5.25,0,0,1-.45-1.92,13.16,13.16,0,0,1,.12-2.66,28.68,28.68,0,0,1,.58-3.09l-1,.76-1.19.87-1,.71A14.17,14.17,0,0,1,1579.94,1169Z" transform="translate(0.06 -455.26)"/><path class="cls-29" d="M1593.14,1161.67l.21.44a2.65,2.65,0,0,0,1.3,1.38,1.88,1.88,0,0,0,1.62-.07,4.94,4.94,0,0,0,1.59-1.27,10.89,10.89,0,0,0,1.32-2q.59-1.11,1.37-2.89l.52,1.08a24.31,24.31,0,0,1-2,5.49,6.63,6.63,0,0,1-2.93,3,3.28,3.28,0,0,1-3.08,0,6,6,0,0,1-2.54-2.89,7.38,7.38,0,0,1-.77-3.78,14.16,14.16,0,0,1,1.28-4.55,12.11,12.11,0,0,1,1.83-3,6.62,6.62,0,0,1,2.08-1.73,2.3,2.3,0,0,1,1.5-.26,1.51,1.51,0,0,1,1,.9,4.07,4.07,0,0,1,.24,2.62,10.61,10.61,0,0,1-1.47,3.42A28.88,28.88,0,0,1,1593.14,1161.67Zm-.38-1.23a11.15,11.15,0,0,0,2-2.85,8.67,8.67,0,0,0,.82-2.57,3.07,3.07,0,0,0-.06-1.49c-.13-.27-.32-.35-.57-.23a2.81,2.81,0,0,0-.84.91,9.52,9.52,0,0,0-.93,1.76,8.62,8.62,0,0,0-.57,2.17A5.47,5.47,0,0,0,1592.76,1160.44Z" transform="translate(0.06 -455.26)"/><path class="cls-29" d="M1603.7,1156.55l.21.44a2.64,2.64,0,0,0,1.3,1.38,1.89,1.89,0,0,0,1.62-.07,5,5,0,0,0,1.59-1.28,10.88,10.88,0,0,0,1.32-2q.59-1.12,1.37-2.89l.52,1.08a24.32,24.32,0,0,1-2,5.49,6.62,6.62,0,0,1-2.93,3,3.28,3.28,0,0,1-3.08,0,6,6,0,0,1-2.54-2.89,7.37,7.37,0,0,1-.77-3.78,14.21,14.21,0,0,1,1.28-4.56,12.08,12.08,0,0,1,1.83-3,6.64,6.64,0,0,1,2.08-1.73,2.3,2.3,0,0,1,1.5-.26,1.51,1.51,0,0,1,1,.9,4.08,4.08,0,0,1,.25,2.62,10.61,10.61,0,0,1-1.47,3.42A29,29,0,0,1,1603.7,1156.55Zm-.38-1.23a11.16,11.16,0,0,0,2-2.85,8.67,8.67,0,0,0,.82-2.57,3.08,3.08,0,0,0-.06-1.49c-.13-.27-.32-.35-.57-.23a2.83,2.83,0,0,0-.84.91,9.51,9.51,0,0,0-.93,1.76,8.66,8.66,0,0,0-.57,2.17A5.5,5.5,0,0,0,1603.31,1155.32Z" transform="translate(0.06 -455.26)"/><path class="cls-29" d="M1621.46,1143.2q-1.43,5-.77,6.32.37.76,1,.46a3,3,0,0,0,1.07-1.18q.56-.94,1.64-3.16l.59,1.22q-1.31,3.69-2.12,5.43a4.34,4.34,0,0,1-1.66,2.16q-1.45.7-2.37-1.2a4.08,4.08,0,0,1-.36-1.2,8.24,8.24,0,0,1-.07-1.37q0-.74.12-2.15t.25-3.21a12.4,12.4,0,0,0-1.54,3.25,21.64,21.64,0,0,0-.8,2.62q-.27,1.19-.55,2.62a16.48,16.48,0,0,1-.46,2,1.16,1.16,0,0,1-.56.72q-.57.27-1.62-.68a8.13,8.13,0,0,1-1.81-2.52,4.64,4.64,0,0,1-.52-1.62,11.33,11.33,0,0,1,.12-2,19.23,19.23,0,0,1,.77-3.76,2.78,2.78,0,0,1,1.27-1.69,2,2,0,0,1,1-.25.71.71,0,0,1,.63.43.85.85,0,0,1,.07.42,2.32,2.32,0,0,1-.07.47q-.06.22-.26.89-1.29,4.44-.84,5.36.25.51.58.35t.49-1.08q.28-1,.71-2.54a31.55,31.55,0,0,1,1.16-3.41,27.46,27.46,0,0,1,1.87-3.76,3.28,3.28,0,0,1,1.24-1.41c.19-.09.5.08.93.51a5.25,5.25,0,0,1,1,1.44A2.49,2.49,0,0,1,1621.46,1143.2Z" transform="translate(0.06 -455.26)"/></g><g id="Orange_Store" data-name="Orange Store"><rect class="cls-29" x="924.1" y="629.68" width="332.48" height="190.7"/><path class="cls-30" d="M1266.53,1289.55a8.35,8.35,0,0,1-8.34,8.34H920.14a8.34,8.34,0,0,1-8.34-8.34V1284a8.34,8.34,0,0,1,8.34-8.35h338.05a8.35,8.35,0,0,1,8.34,8.35Z" transform="translate(0.06 -455.26)"/><rect class="cls-31" x="1138.71" y="638.02" width="91.18" height="182.37"/><rect class="cls-13" x="1150.38" y="648.03" width="67.83" height="77.01"/><polygon class="cls-32" points="1150.38 725.04 1150.38 648.03 1218.22 648.03 1150.38 725.04"/><polygon class="cls-33" points="1150.38 648.03 1150.38 650.53 1216.13 650.53 1216.13 725.04 1218.22 725.04 1218.22 648.03 1150.38 648.03"/><rect class="cls-32" x="1150.38" y="735.04" width="67.83" height="77.01"/><polygon class="cls-13" points="1218.22 735.04 1150.38 735.04 1150.38 812.05 1218.22 735.04"/><polygon class="cls-33" points="1150.38 812.05 1150.38 809.54 1216.13 809.54 1216.13 735.04 1218.22 735.04 1218.22 812.05 1150.38 812.05"/><path class="cls-34" d="M1152.4,1184.47a6.25,6.25,0,1,1-6.24-6.26A6.25,6.25,0,0,1,1152.4,1184.47Z" transform="translate(0.06 -455.26)"/><path class="cls-1" d="M1152,1184.47a5.84,5.84,0,1,1-5.83-5.84A5.83,5.83,0,0,1,1152,1184.47Z" transform="translate(0.06 -455.26)"/><path class="cls-35" d="M1089.16,1209.49a5.57,5.57,0,0,1-5.82,5.28H963.22a5.58,5.58,0,0,1-5.83-5.28h0a5.57,5.57,0,0,1,5.83-5.29h120.12a5.57,5.57,0,0,1,5.82,5.29Z" transform="translate(0.06 -455.26)"/><rect class="cls-35" x="965.24" y="644.14" width="115.65" height="104.8"/><rect class="cls-13" x="976.36" y="652.2" width="95.62" height="96.74"/><polygon class="cls-36" points="976.36 748.94 976.36 652.2 1071.98 652.2 976.36 748.94"/><polygon class="cls-33" points="976.36 652.2 976.36 655.34 1069.05 655.34 1069.05 748.94 1071.98 748.94 1071.98 652.2 976.36 652.2"/><path class="cls-37" d="M1089.16,1103.29a5.57,5.57,0,0,1-5.82,5.28H963.22a5.57,5.57,0,0,1-5.83-5.28h0a5.57,5.57,0,0,1,5.83-5.28h120.12a5.57,5.57,0,0,1,5.82,5.28Z" transform="translate(0.06 -455.26)"/><path class="cls-30" d="M1226.49,1006.27V980.42a8.26,8.26,0,0,0-8.17-8.35h-264a8.26,8.26,0,0,0-8.17,8.35v25.85Z" transform="translate(0.06 -455.26)"/><path class="cls-38" d="M878.84,1100a23.15,23.15,0,0,0,46.23,0Z" transform="translate(0.06 -455.26)"/><path class="cls-39" d="M925.07,1100a23.15,23.15,0,0,0,46.24,0Z" transform="translate(0.06 -455.26)"/><path class="cls-38" d="M971.31,1100a23.15,23.15,0,0,0,46.24,0Z" transform="translate(0.06 -455.26)"/><path class="cls-39" d="M1016.77,1100a23.15,23.15,0,0,0,46.23,0Z" transform="translate(0.06 -455.26)"/><path class="cls-40" d="M1063,1100a23.15,23.15,0,0,0,46.24,0Z" transform="translate(0.06 -455.26)"/><path class="cls-38" d="M1293.4,1100a23.15,23.15,0,0,1-46.23,0Z" transform="translate(0.06 -455.26)"/><path class="cls-39" d="M1247.17,1100a23.15,23.15,0,0,1-46.24,0Z" transform="translate(0.06 -455.26)"/><path class="cls-38" d="M1200.93,1100a23.15,23.15,0,0,1-46.23,0Z" transform="translate(0.06 -455.26)"/><path class="cls-39" d="M1155.47,1100a23.15,23.15,0,0,1-46.24,0Z" transform="translate(0.06 -455.26)"/><path class="cls-38" d="M1109.23,1100a23.15,23.15,0,0,1-46.23,0Z" transform="translate(0.06 -455.26)"/><polygon class="cls-30" points="1079.74 644.7 878.84 644.7 945.61 556.31 1079.74 556.31 1079.74 644.7"/><polygon class="cls-41" points="1074.62 644.7 925.2 644.7 977.89 556.31 1079.74 556.31 1074.62 644.7"/><polygon class="cls-30" points="1074.62 644.7 971.06 644.7 1009.85 556.31 1079.74 556.31 1074.62 644.7"/><polygon class="cls-41" points="1083.15 644.7 1016.84 644.7 1041.73 556.31 1081.91 556.31 1083.15 644.7"/><polygon class="cls-30" points="1086.18 556.31 1073.94 556.31 1063.06 644.7 1086.18 644.7 1086.18 556.31"/><polygon class="cls-38" points="1092.63 644.7 1293.52 644.7 1226.76 556.31 1092.63 556.31 1092.63 644.7"/><polygon class="cls-41" points="1097.74 644.7 1247.16 644.7 1194.47 556.31 1092.63 556.31 1097.74 644.7"/><polygon class="cls-30" points="1097.74 644.7 1201.3 644.7 1162.52 556.31 1092.63 556.31 1097.74 644.7"/><polygon class="cls-41" points="1089.22 644.7 1155.54 644.7 1130.63 556.31 1090.46 556.31 1089.22 644.7"/><polygon class="cls-30" points="1086.18 556.31 1098.42 556.31 1109.3 644.7 1086.18 644.7 1086.18 556.31"/><rect class="cls-30" x="1081.91" y="556.31" width="7.32" height="88.39"/><rect class="cls-42" x="1266.59" y="522.74" width="3.75" height="319.89"/><rect class="cls-42" x="1270.35" y="530.4" width="97.24" height="3.51"/><rect class="cls-42" x="1293.47" y="532.16" width="3.96" height="35.02"/><rect class="cls-42" x="1344.93" y="532.16" width="3.96" height="35.02"/><path class="cls-43" d="M1367.53,1034.09c0,10-12.77,18-28.52,18h-36.87c-15.75,0-28.52-8.07-28.52-18v-23.29c0-10,12.77-18,28.52-18H1339c15.75,0,28.52,8.07,28.52,18Z" transform="translate(0.06 -455.26)"/><path class="cls-29" d="M1364.36,1033.3c0,9.28-11.91,16.8-26.6,16.8h-34.38c-14.69,0-26.6-7.52-26.6-16.8v-21.72c0-9.28,11.91-16.8,26.6-16.8h34.38c14.69,0,26.6,7.52,26.6,16.8Z" transform="translate(0.06 -455.26)"/><path class="cls-44" d="M1297.09,1009.57l.78-.2q.39-.1.8-.17a4.57,4.57,0,0,1,.79-.07,2.64,2.64,0,0,1,1.43.37,2.32,2.32,0,0,1,.89,1,3.27,3.27,0,0,1,.29,1.38,10,10,0,0,1-.42,2.66,16.91,16.91,0,0,1-1.21,3,18.62,18.62,0,0,1-1.85,2.92,11.51,11.51,0,0,1-3.47,3,7.71,7.71,0,0,1-3.72,1.14,3.68,3.68,0,0,1-2.2-.68,4.42,4.42,0,0,1-1.49-2,7.89,7.89,0,0,1-.54-3,9.76,9.76,0,0,1,1.28-4.71,18,18,0,0,1,3.24-4.27,20.13,20.13,0,0,1,3.95-3.07,7,7,0,0,1,3.24-1.15,2,2,0,0,1,1.56.62,6.16,6.16,0,0,1,1,2,9.72,9.72,0,0,0-2.32.32A10.1,10.1,0,0,0,1297.09,1009.57Zm-3.61,2.91a16.76,16.76,0,0,0-2,2.77,21.28,21.28,0,0,0-1.66,3.33,7.64,7.64,0,0,0-.63,2.49q0,2.14,2,2.13,1.39,0,3.59-1.88a18.88,18.88,0,0,0,3.83-4.52,9.37,9.37,0,0,0,1.63-4.81q0-1.59-1.26-1.59a5.19,5.19,0,0,0-2.38.77,10.59,10.59,0,0,0-2.69,2.19q-.46.52-1.82,2.52A12.06,12.06,0,0,1,1293.48,1012.48Z" transform="translate(0.06 -455.26)"/><path class="cls-44" d="M1302.94,1020.86v-.93a14,14,0,0,0,1.17-1.56,1.59,1.59,0,0,1-.66-.39,1,1,0,0,1-.21-.69,2.92,2.92,0,0,1,.43-1.3,7.51,7.51,0,0,1,1.06-1.48,3.32,3.32,0,0,1,1.15-.89.86.86,0,0,1,.39-.1q.29,0,.29.27a2.72,2.72,0,0,1-.44,1,34.23,34.23,0,0,1,3.73-.46,1,1,0,0,1,.42.06,1,1,0,0,1,.4.6,3,3,0,0,1,.16.94,1.11,1.11,0,0,1-.26.65,12.89,12.89,0,0,1-.91,1,8.54,8.54,0,0,0-1.28,1.78,3.5,3.5,0,0,0-.52,1.45q0,.67.83.67t3-1.78v1q-1.19,1.25-2,2a10.52,10.52,0,0,1-1.43,1.14,2.25,2.25,0,0,1-1.17.42,1.2,1.2,0,0,1-1-.55,2.69,2.69,0,0,1-.4-1.6,3.86,3.86,0,0,1,.32-1.4,9.81,9.81,0,0,1,.92-1.71,21,21,0,0,1,1.37-1.84l-.9.18-1.06.19-.86.16A10.31,10.31,0,0,1,1302.94,1020.86Z" transform="translate(0.06 -455.26)"/><path class="cls-44" d="M1313.33,1017.2a17.37,17.37,0,0,1,4.23-2.94,8.26,8.26,0,0,1,3.17-1,.79.79,0,0,1,.56.25,1.92,1.92,0,0,1,.41.58,1.34,1.34,0,0,1,.15.49.41.41,0,0,1-.2.38,3.91,3.91,0,0,1-.7.29l.26.59c.1.24.19.43.24.58a1.11,1.11,0,0,1,.09.39,3,3,0,0,1-.69,1.28q-.7.94-1,1.38a2,2,0,0,0-.28,1.09q0,1.06,1,1.06t3.14-1.88v.87q-3.63,4-5.19,4a.87.87,0,0,1-.79-.37,2,2,0,0,1-.24-1.08,10.2,10.2,0,0,1,.82-3.28q-2.09,2.32-3.11,3.3a2.8,2.8,0,0,1-1.68,1q-.32,0-.79-.54a5.26,5.26,0,0,1-.84-1.41,4.59,4.59,0,0,1-.37-1.8,4.16,4.16,0,0,1,.13-1.12,2.71,2.71,0,0,1,.5-.92A12.74,12.74,0,0,1,1313.33,1017.2Zm6.86-1.58a31,31,0,0,0-5.31,2.89,3.23,3.23,0,0,0-1.58,2.45,1.58,1.58,0,0,0,.16.75.48.48,0,0,0,.43.29,1.57,1.57,0,0,0,.56-.2,11.25,11.25,0,0,0,2.75-2.31Q1318.44,1018.07,1320.19,1015.62Z" transform="translate(0.06 -455.26)"/><path class="cls-44" d="M1333.21,1017.17q-2.52,2.81-2.52,3.91c0,.41.17.62.5.62a2.16,2.16,0,0,0,1.08-.44q.67-.44,2.09-1.55v1q-2,2-3.12,2.89a3.17,3.17,0,0,1-1.78.89q-1.17,0-1.17-1.55a3,3,0,0,1,.14-.9,6,6,0,0,1,.39-.92q.25-.48.77-1.38t1.19-2a9,9,0,0,0-2,1.65,15.8,15.8,0,0,0-1.36,1.47q-.56.69-1.2,1.55a12.28,12.28,0,0,1-.93,1.15.85.85,0,0,1-.59.29q-.46,0-.85-1a6,6,0,0,1-.39-2.24,3.4,3.4,0,0,1,.18-1.23,8.31,8.31,0,0,1,.71-1.26,14,14,0,0,1,1.71-2.23,2,2,0,0,1,1.38-.71,1.51,1.51,0,0,1,.74.16.52.52,0,0,1,.28.49.62.62,0,0,1-.09.3,1.79,1.79,0,0,1-.19.29l-.45.5q-2.26,2.51-2.26,3.25c0,.28.09.41.27.41s.34-.18.67-.55l1.27-1.45a23.23,23.23,0,0,1,1.85-1.87,19.91,19.91,0,0,1,2.43-1.88,2.39,2.39,0,0,1,1.26-.53c.15,0,.3.21.45.63a3.84,3.84,0,0,1,.22,1.28Q1333.83,1016.52,1333.21,1017.17Z" transform="translate(0.06 -455.26)"/><path class="cls-44" d="M1345.66,1020.72l-4.76,3.91a27.58,27.58,0,0,1-3.65,5.18q-1.65,1.71-2.45,1.71-.43,0-.43-.53a5.24,5.24,0,0,1,1-2.64,10.64,10.64,0,0,1,1-1.23,14.29,14.29,0,0,1,1-1q.48-.43,1.27-1.09l1.07-.9q1.43-2.92,2.06-4.47-1.35,1.43-2.35,2.35a11.45,11.45,0,0,1-1.84,1.41,3,3,0,0,1-1.51.49q-.73,0-1.35-1.17a5.08,5.08,0,0,1-.62-2.4,3.1,3.1,0,0,1,.26-1.2,5.9,5.9,0,0,1,.83-1.35,10.77,10.77,0,0,1,1.44-1.47,15.52,15.52,0,0,1,2-1.47,7.38,7.38,0,0,1,3.45-1.39q.92,0,.92.67,0,.93-2,1.82a12.68,12.68,0,0,0-2.41,1.4,9.14,9.14,0,0,0-1.93,1.86,3.06,3.06,0,0,0-.74,1.77,1,1,0,0,0,.19.62.6.6,0,0,0,.49.23,2.07,2.07,0,0,0,1.15-.46,22.32,22.32,0,0,0,1.91-1.62,17.17,17.17,0,0,0,1.53-1.71,23.35,23.35,0,0,1,1.58-1.8,1.72,1.72,0,0,1,1.13-.62.63.63,0,0,1,.46.18.71.71,0,0,1,.18.52,5.55,5.55,0,0,1-.52,1.91q-.52,1.25-1.88,4.11l3.47-2.52Z" transform="translate(0.06 -455.26)"/><path class="cls-44" d="M1347.85,1020.28v.36a1.93,1.93,0,0,0,.42,1.32,1.38,1.38,0,0,0,1.09.47,3.61,3.61,0,0,0,1.45-.33,8,8,0,0,0,1.5-.87q.74-.54,1.82-1.46v.87a17.71,17.71,0,0,1-3,3,4.84,4.84,0,0,1-2.88,1,2.39,2.39,0,0,1-2-1,4.41,4.41,0,0,1-.75-2.71,5.39,5.39,0,0,1,.7-2.73,10.39,10.39,0,0,1,2.29-2.59,8.84,8.84,0,0,1,2.16-1.4,4.86,4.86,0,0,1,1.92-.47,1.69,1.69,0,0,1,1.07.31,1.1,1.1,0,0,1,.39.92,3,3,0,0,1-.67,1.8,7.77,7.77,0,0,1-2.06,1.78A21,21,0,0,1,1347.85,1020.28Zm.14-.93a8.18,8.18,0,0,0,2.21-1.25,6.31,6.31,0,0,0,1.35-1.43,2.23,2.23,0,0,0,.44-1c0-.22-.1-.33-.3-.33a2.06,2.06,0,0,0-.84.33,6.92,6.92,0,0,0-1.17.86,6.34,6.34,0,0,0-1.07,1.25A4,4,0,0,0,1348,1019.35Z" transform="translate(0.06 -455.26)"/><path class="cls-44" d="M1297,1035.42a2.24,2.24,0,0,0-.65-.72,3.82,3.82,0,0,0-1-.52,6.29,6.29,0,0,0-1.14-.29,9.25,9.25,0,0,1-3.29-1.14.87.87,0,0,1-.28-.3.79.79,0,0,1-.15-.44,4.89,4.89,0,0,1,.26-1.54,3.3,3.3,0,0,1,.66-1.21,5.31,5.31,0,0,1,2.32-1.26,12.32,12.32,0,0,1,3.78-.54,7.57,7.57,0,0,1,1.94.19c.46.13.68.32.68.59a2.31,2.31,0,0,1-.18,1,1.09,1.09,0,0,1-.38.47,5.92,5.92,0,0,1-.72.32,7.46,7.46,0,0,0-1,.4,7.37,7.37,0,0,0-.69.4,1.09,1.09,0,0,1-.36.19c-.06,0-.09,0-.09-.07s.1-.25.31-.45a3,3,0,0,1,.76-.53q.48-.25.48-.32c0-.07-.18-.11-.53-.11a14.46,14.46,0,0,0-3,.29,7.1,7.1,0,0,0-2.16.76q-.79.47-.79,1a.44.44,0,0,0,.33.43q.33.13,1.44.42a14,14,0,0,1,2,.68,6.35,6.35,0,0,1,1.87,1.13,1.77,1.77,0,0,1,.61,1.31,2.29,2.29,0,0,1-.24,1,3,3,0,0,1-.7.92,4,4,0,0,1-1.06.69,8.76,8.76,0,0,1-1.29.41,14.24,14.24,0,0,1-1.69.3,14.75,14.75,0,0,1-1.74.11,8.56,8.56,0,0,1-2.46-.29q-.93-.29-.93-.87a2,2,0,0,1,.31-.82,1.68,1.68,0,0,1,.74-.75,2.37,2.37,0,0,1,.72-.17c.23,0,.35,0,.35.08a.07.07,0,0,1,0,.05l-.06,0-.07,0-.28.11-.17.08a.12.12,0,0,0-.06.11q0,.18,1.8.18a23.8,23.8,0,0,0,2.57-.11,7.18,7.18,0,0,0,1.77-.41A5,5,0,0,0,1297,1035.42Z" transform="translate(0.06 -455.26)"/><path class="cls-44" d="M1302.6,1030.67h.38a4.86,4.86,0,0,1,.84-1.17,1.22,1.22,0,0,1,.85-.34c.32,0,.48.07.48.22a1.76,1.76,0,0,1-.37.57,7.53,7.53,0,0,0-.57.78l.53.06.36,0a13.64,13.64,0,0,1-1.25,1.89l-.41,0-.34,0-.41,0q-.47.76-.79,1.36a7.59,7.59,0,0,0-.49,1.09,2.91,2.91,0,0,0-.17.94c0,.4.16.6.48.6a1.74,1.74,0,0,0,.87-.35q.54-.35,1.43-1.09v.58q-2.35,2.55-3.48,2.55a.77.77,0,0,1-.63-.31,1.23,1.23,0,0,1-.24-.78,2.72,2.72,0,0,1,.13-.77q.13-.44.48-1.34l-.23.21-.2.18-.2.17-.21.19v-.6a13.48,13.48,0,0,0,2.21-2.69h-.51a3.09,3.09,0,0,0-.77.07l-.2.06-.13,0s0,0,0-.05a1.92,1.92,0,0,1,.36-.86,3.15,3.15,0,0,1,.54-.72,1.35,1.35,0,0,1,.63-.32A5,5,0,0,1,1302.6,1030.67Z" transform="translate(0.06 -455.26)"/><path class="cls-44" d="M1309.61,1035.18v.58a4.62,4.62,0,0,1-.92.7,2,2,0,0,1-1,.14q-1.13,1.34-2,1.34a1.39,1.39,0,0,1-.89-.32,2.25,2.25,0,0,1-.64-.88,3.14,3.14,0,0,1-.24-1.25,2.63,2.63,0,0,1,.37-1.24,5.55,5.55,0,0,1,1-1.27,5.45,5.45,0,0,1,1.26-1,2.65,2.65,0,0,1,1.25-.36,1.38,1.38,0,0,1,.65.13.39.39,0,0,1,.24.35.65.65,0,0,1-.2.4.74.74,0,0,1,.45.23,1,1,0,0,1,.12.59,3.72,3.72,0,0,1-.2,1.05,5.27,5.27,0,0,1-.54,1.19l.16.16h.13a.63.63,0,0,0,.29-.07l.26-.16Zm-1.8-2.29q-.72.43-1.24.79a5.94,5.94,0,0,0-.87.71,1.92,1.92,0,0,0-.48.73q-.22,1-.22,1.06,0,.57.8.58a2.75,2.75,0,0,0,1.26-.65,2.28,2.28,0,0,1-.15-.78,3,3,0,0,1,.23-1.12A9.39,9.39,0,0,1,1307.81,1032.88Z" transform="translate(0.06 -455.26)"/><path class="cls-44" d="M1309.5,1035.87v-.57a8.66,8.66,0,0,0,.71-1,1,1,0,0,1-.41-.24.6.6,0,0,1-.13-.42,1.76,1.76,0,0,1,.26-.79,4.52,4.52,0,0,1,.65-.9,2,2,0,0,1,.7-.54.52.52,0,0,1,.24-.06c.12,0,.17.06.17.17a1.66,1.66,0,0,1-.27.6,20.62,20.62,0,0,1,2.27-.28.62.62,0,0,1,.25,0,.61.61,0,0,1,.24.37,1.82,1.82,0,0,1,.1.58.68.68,0,0,1-.16.4,7.85,7.85,0,0,1-.55.62,5.18,5.18,0,0,0-.78,1.08,2.13,2.13,0,0,0-.31.88c0,.27.17.41.51.41a4,4,0,0,0,1.85-1.08v.58q-.72.76-1.19,1.19a6.43,6.43,0,0,1-.87.69,1.37,1.37,0,0,1-.72.26.73.73,0,0,1-.61-.34,1.64,1.64,0,0,1-.24-1,2.34,2.34,0,0,1,.19-.85,6,6,0,0,1,.56-1,12.89,12.89,0,0,1,.83-1.12l-.55.11-.65.12-.52.1A6.31,6.31,0,0,1,1309.5,1035.87Z" transform="translate(0.06 -455.26)"/><path class="cls-44" d="M1316.2,1035.51v.22a1.18,1.18,0,0,0,.25.8.84.84,0,0,0,.66.29,2.19,2.19,0,0,0,.88-.2,4.81,4.81,0,0,0,.91-.53q.45-.33,1.11-.89v.53a10.85,10.85,0,0,1-1.85,1.82,2.94,2.94,0,0,1-1.75.63,1.46,1.46,0,0,1-1.23-.6,2.68,2.68,0,0,1-.45-1.65,3.28,3.28,0,0,1,.43-1.66,6.31,6.31,0,0,1,1.39-1.57,5.44,5.44,0,0,1,1.32-.85,3,3,0,0,1,1.17-.29,1,1,0,0,1,.65.19.67.67,0,0,1,.24.56,1.81,1.81,0,0,1-.41,1.09,4.73,4.73,0,0,1-1.25,1.08A12.86,12.86,0,0,1,1316.2,1035.51Zm.09-.57a5,5,0,0,0,1.34-.76,3.86,3.86,0,0,0,.82-.87,1.36,1.36,0,0,0,.27-.61c0-.13-.06-.2-.18-.2a1.24,1.24,0,0,0-.51.2,4.16,4.16,0,0,0-.71.52,3.79,3.79,0,0,0-.65.76A2.45,2.45,0,0,0,1316.29,1034.94Z" transform="translate(0.06 -455.26)"/></g><g id="Lamp"><polygon class="cls-36" points="1715.82 540.67 1751.7 843.01 1695.25 843.01 1695.25 579.73 1700.29 538.78 1715.82 540.67"/><path class="cls-45" d="M1715.76,1052.35a1.88,1.88,0,0,1-1.88,1.89h-37.39a1.89,1.89,0,0,1-1.89-1.89h0a1.89,1.89,0,0,1,1.89-1.88h37.39a1.88,1.88,0,0,1,1.88,1.88Z" transform="translate(0.06 -455.26)"/><path class="cls-45" d="M1715.76,995.93a1.88,1.88,0,0,1-1.88,1.88h-37.39a1.89,1.89,0,0,1-1.89-1.88h0a1.89,1.89,0,0,1,1.89-1.89h37.39a1.88,1.88,0,0,1,1.88,1.89Z" transform="translate(0.06 -455.26)"/><ellipse class="cls-45" cx="1695.24" cy="545.81" rx="15.78" ry="14.06"/><path class="cls-29" d="M1680.12,995.93c-5.4,6.76-8.86,17.08-8.86,28.64,0,10.09,2.63,19.24,6.9,25.9h34.05c4.26-6.66,6.9-15.8,6.9-25.9,0-11.57-3.46-21.88-8.86-28.64Z" transform="translate(0.06 -455.26)"/><path class="cls-45" d="M1707.32,1052.35,1697.1,1051v-.51l-1.92.26-1.92-.26v.51l-10.22,1.37a23.93,23.93,0,0,1,7.2,19.38h9.88A23.94,23.94,0,0,1,1707.32,1052.35Z" transform="translate(0.06 -455.26)"/><rect class="cls-45" x="1693.19" y="612.35" width="4.12" height="186.6"/><rect class="cls-45" x="1685.74" y="797.23" width="19.01" height="45.96"/><rect class="cls-45" x="1690.2" y="724.52" width="10.09" height="4.11"/><rect class="cls-45" x="1690.2" y="636.71" width="10.09" height="4.12"/><polygon class="cls-36" points="950.51 540.67 986.39 843.01 929.93 843.01 929.93 579.73 934.97 538.78 950.51 540.67"/><path class="cls-45" d="M950.44,1052.35a1.88,1.88,0,0,1-1.88,1.89H911.17a1.89,1.89,0,0,1-1.89-1.89h0a1.89,1.89,0,0,1,1.89-1.88h37.39a1.88,1.88,0,0,1,1.88,1.88Z" transform="translate(0.06 -455.26)"/><path class="cls-45" d="M950.44,995.93a1.88,1.88,0,0,1-1.88,1.88H911.17a1.89,1.89,0,0,1-1.89-1.88h0a1.89,1.89,0,0,1,1.89-1.89h37.39a1.88,1.88,0,0,1,1.88,1.89Z" transform="translate(0.06 -455.26)"/><ellipse class="cls-45" cx="929.93" cy="545.81" rx="15.78" ry="14.06"/><path class="cls-29" d="M914.8,995.93c-5.4,6.76-8.86,17.08-8.86,28.64,0,10.09,2.63,19.24,6.9,25.9h34.05c4.26-6.66,6.9-15.8,6.9-25.9,0-11.57-3.46-21.88-8.86-28.64Z" transform="translate(0.06 -455.26)"/><path class="cls-45" d="M942,1052.35,931.79,1051v-.51l-1.92.26-1.92-.26v.51l-10.22,1.37a23.93,23.93,0,0,1,7.2,19.38h9.88A23.94,23.94,0,0,1,942,1052.35Z" transform="translate(0.06 -455.26)"/><rect class="cls-45" x="927.87" y="612.35" width="4.12" height="186.6"/><rect class="cls-45" x="920.43" y="797.23" width="19.01" height="45.96"/><rect class="cls-45" x="924.89" y="724.52" width="10.09" height="4.11"/><rect class="cls-45" x="924.89" y="636.71" width="10.09" height="4.12"/><polygon class="cls-36" points="185.19 540.67 221.07 843.01 164.62 843.01 164.62 579.73 169.66 538.78 185.19 540.67"/><path class="cls-45" d="M185.13,1052.35a1.88,1.88,0,0,1-1.88,1.89H145.86a1.89,1.89,0,0,1-1.89-1.89h0a1.89,1.89,0,0,1,1.89-1.88h37.39a1.88,1.88,0,0,1,1.88,1.88Z" transform="translate(0.06 -455.26)"/><path class="cls-45" d="M185.13,995.93a1.88,1.88,0,0,1-1.88,1.88H145.86a1.89,1.89,0,0,1-1.89-1.88h0a1.89,1.89,0,0,1,1.89-1.89h37.39a1.88,1.88,0,0,1,1.88,1.89Z" transform="translate(0.06 -455.26)"/><ellipse class="cls-45" cx="164.61" cy="545.81" rx="15.78" ry="14.06"/><path class="cls-29" d="M149.49,995.93c-5.4,6.76-8.86,17.08-8.86,28.64,0,10.09,2.63,19.24,6.9,25.9h34.05c4.26-6.66,6.9-15.8,6.9-25.9,0-11.57-3.46-21.88-8.86-28.64Z" transform="translate(0.06 -455.26)"/><path class="cls-45" d="M176.69,1052.35,166.47,1051v-.51l-1.92.26-1.92-.26v.51l-10.22,1.37a23.93,23.93,0,0,1,7.2,19.38h9.88A23.94,23.94,0,0,1,176.69,1052.35Z" transform="translate(0.06 -455.26)"/><rect class="cls-45" x="162.56" y="612.35" width="4.12" height="186.6"/><rect class="cls-45" x="155.11" y="797.23" width="19.01" height="45.96"/><rect class="cls-45" x="159.57" y="724.52" width="10.09" height="4.11"/><rect class="cls-45" x="159.57" y="636.71" width="10.09" height="4.12"/></g></svg>